<?xml version="1.0" encoding="UTF-8" standalone="no"?>
<!-- Created with Inkscape (http://www.inkscape.org/) -->

<svg
   xmlns:osb="http://www.openswatchbook.org/uri/2009/osb"
   xmlns:dc="http://purl.org/dc/elements/1.1/"
   xmlns:cc="http://creativecommons.org/ns#"
   xmlns:rdf="http://www.w3.org/1999/02/22-rdf-syntax-ns#"
   xmlns:svg="http://www.w3.org/2000/svg"
   xmlns="http://www.w3.org/2000/svg"
   xmlns:xlink="http://www.w3.org/1999/xlink"
   xmlns:sodipodi="http://sodipodi.sourceforge.net/DTD/sodipodi-0.dtd"
   xmlns:inkscape="http://www.inkscape.org/namespaces/inkscape"
   width="300"
   height="380"
   viewBox="0 0 79.375 100.54167"
   version="1.1"
   id="svg8"
   inkscape:version="0.92.2 (5c3e80d, 2017-08-06)"
   sodipodi:docname="imageinput.svg">
  <defs
     id="defs2">
    <linearGradient
       id="linearGradient18766"
       osb:paint="solid">
      <stop
         style="stop-color:#25aea3;stop-opacity:1;"
         offset="0"
         id="stop18764" />
    </linearGradient>
    <linearGradient
       id="linearGradient5350"
       osb:paint="solid">
      <stop
         style="stop-color:#ffffff;stop-opacity:1;"
         offset="0"
         id="stop5348" />
    </linearGradient>
    <linearGradient
       osb:paint="solid"
       id="linearGradient960">
      <stop
         id="stop958"
         offset="0"
         style="stop-color:#46e063;stop-opacity:1;" />
    </linearGradient>
    <mask
       id="mask1_outline_ins">
      <path
         style="fill:#ffffff;stroke-width:0.26458332"
         inkscape:connector-curvature="0"
         d="m 18,144 h 47.625 v 9.26042 H 18 Z"
         id="use27" />
    </mask>
    <clipPath
       clipPathUnits="userSpaceOnUse"
       id="clipPath8536">
      <g
         style="stroke-width:0.2251281"
         id="use8538"
         inkscape:label="Clip">
        <g
           style="stroke-width:0.2251281"
           id="g4901">
          <path
             id="path4899"
             d="m 57.937536,55.946649 c -0.423788,-0.187801 -0.557971,-0.42336 -0.560752,-0.984409 -0.0026,-0.527738 0.391446,-0.983615 0.847296,-0.980175 0.449421,0.003 0.642329,0.166582 0.807165,0.682942 0.269028,0.842698 -0.376714,1.59938 -1.093709,1.281642 z m 0.08758,-2.60432 c -0.31369,-0.412829 -0.29128,-1.121966 0.04821,-1.526328 0.794067,-0.945674 1.939237,0.508873 1.183587,1.503336 -0.312288,0.410977 -0.928238,0.42246 -1.231794,0.02299 z m 10.074327,-0.02431 c -0.454289,-0.426932 -0.51808,-1.212718 -0.139752,-1.721194 0.196294,-0.26379 0.206639,-0.344382 0.05241,-0.408358 -0.362241,-0.150257 -0.716147,-0.703924 -0.716147,-1.120325 0,-0.399495 -0.0204,-0.389679 -0.498316,0.240347 -0.604203,0.796528 -1.240632,1.071007 -2.251816,0.971127 -0.624811,-0.06171 -0.842775,-0.170926 -1.207026,-0.604737 -0.382509,-0.455559 -0.444553,-0.647065 -0.444553,-1.372023 0,-0.74676 0.05358,-0.899557 0.471223,-1.344004 0.39952,-0.425133 0.548375,-0.48641 0.978164,-0.402643 0.278818,0.05432 0.592825,0.111416 0.697812,0.126788 0.267018,0.0391 0.716254,0.968349 0.716889,1.482884 5.82e-4,0.508741 -0.525357,1.152366 -0.941732,1.152366 -0.825579,0 -0.970412,-1.232799 -0.198728,-1.691719 l 0.465984,-0.277151 -0.291333,-0.346948 c -0.346181,-0.412301 -0.585232,-0.432647 -1.131305,-0.09639 -0.270854,0.16682 -0.459978,0.461619 -0.565679,0.881724 -0.444686,1.767761 1.225444,2.94386 2.896949,2.03999 0.683657,-0.369675 1.02108,-0.913394 1.12178,-1.807527 0.08853,-0.785998 -0.153723,-1.39229 -1.093787,-2.737644 -0.929534,-1.330272 -0.914321,-2.288461 0.03638,-2.288461 0.487389,0 0.652039,0.52123 0.342397,1.084051 -0.206084,0.374597 -0.20275,0.413809 0.04908,0.574331 0.367215,0.234051 0.510275,0.217435 0.767768,-0.08922 0.223916,-0.266647 0.289163,-0.99314 0.132794,-1.478438 -0.252729,-0.784357 -1.793213,-1.008486 -2.582465,-0.375708 -0.967502,0.775679 -1.021741,1.730295 -0.173487,3.053794 0.267494,0.417354 0.456777,0.794041 0.420635,0.837089 -0.135308,0.161131 -1.068097,-1.502384 -1.156256,-2.061977 -0.210185,-1.334426 0.697733,-2.374292 2.073989,-2.375377 0.679027,-5.02e-4 0.867569,0.0699 1.235657,0.461619 0.327846,0.348853 0.437939,0.612272 0.448919,1.074049 0.02641,1.109451 -0.810763,1.693334 -1.370939,0.956125 -0.196188,-0.25818 -0.21754,-0.382455 -0.09154,-0.532553 0.269213,-0.320622 0.203914,-0.961311 -0.09798,-0.961311 -0.366448,0 -0.622273,0.423704 -0.527473,0.873575 0.04389,0.208254 0.366765,0.779039 0.717471,1.268386 0.693208,0.967185 0.896196,1.35599 1.048808,2.008902 0.08456,0.361738 0.12536,0.275617 0.27141,-0.57277 0.371633,-2.159106 0.271647,-1.991042 1.217136,-2.04589 l 0.841322,-0.04879 -0.321628,1.796256 c -0.388382,2.168842 -0.398384,2.320951 -0.135547,2.061183 0.10676,-0.105542 0.337027,-1.013407 0.511678,-2.017474 l 0.317553,-1.825546 h 0.815816 c 0.591291,0 0.815816,0.06178 0.815816,0.22442 0,0.123428 -0.155945,1.064075 -0.346524,2.09034 -0.190606,1.02624 -0.332079,1.94564 -0.314405,2.043086 0.01765,0.0975 -0.03905,0.208545 -0.126021,0.246883 -0.135493,0.0598 0.0807,-1.452959 0.580814,-4.063868 0.0667,-0.348271 0.02471,-0.374438 -0.60071,-0.374438 h -0.672465 l -0.309351,1.773396 C 69.525098,49.398498 69.371057,49.819 69.025564,49.819 c -0.261302,0 -0.242913,-0.494242 0.08393,-2.25515 0.152056,-0.81915 0.277813,-1.549638 0.27948,-1.623298 0.0016,-0.07371 -0.295646,-0.111125 -0.660718,-0.08321 l -0.663764,0.05069 -0.346445,2.046367 c -0.317553,1.875605 -0.328613,2.083885 -0.132689,2.496344 0.170101,0.358087 0.312182,0.447516 0.695775,0.437885 0.265139,-0.007 0.592084,-0.0708 0.726599,-0.14261 0.154146,-0.08231 0.244527,-0.0603 0.244527,0.05958 0,0.10459 -0.280987,0.333586 -0.624443,0.508926 -0.691515,0.353033 -0.919824,0.900456 -0.659447,1.581097 0.182113,0.476038 0.596926,0.650293 1.217745,0.511572 0.596053,-0.133165 1.129215,-0.878523 1.253093,-1.751806 0.05961,-0.420159 0.170391,-0.67146 0.296042,-0.67146 0.184468,0 0.501888,-0.684689 0.446299,-0.962713 -0.0131,-0.06548 0.05305,-0.418597 0.146976,-0.784728 0.09393,-0.36613 0.283052,-1.302279 0.420238,-2.080286 l 0.249476,-1.414595 1.416896,-0.04741 c 1.269074,-0.04249 1.446583,-0.01199 1.701245,0.291253 0.331893,0.395288 0.374994,1.343105 0.120703,2.655147 -0.166529,0.859234 -0.09369,1.218486 0.180816,0.891567 0.242808,-0.28919 0.685509,-2.769447 0.516519,-2.893828 -0.171423,-0.12618 -0.02183,-0.781314 0.25326,-1.108921 0.105119,-0.125228 0.191161,-0.40693 0.191161,-0.626005 0,-0.478895 0.266859,-0.662199 1.168268,-0.802349 l 0.679212,-0.105595 -0.0935,0.593619 c -0.05141,0.326496 -0.128006,0.70067 -0.170127,0.831453 -0.05112,0.158724 0.0191,0.237808 0.211217,0.237808 0.213598,0 0.325384,-0.160972 0.433387,-0.624073 0.08001,-0.343244 0.145891,-0.744961 0.146288,-0.892704 5.29e-4,-0.193199 0.182827,-0.298344 0.649103,-0.374465 1.167209,-0.190526 1.155435,-0.197538 1.008485,0.601478 -0.07149,0.389016 -0.162295,0.834099 -0.201639,0.989091 -0.059,0.232463 0.04339,0.290698 0.584994,0.332846 0.528479,0.04109 0.713026,0.141367 0.945859,0.513953 0.286279,0.45847 0.286808,0.476674 0.04207,1.891904 -0.135736,0.785948 -0.214053,1.468282 -0.173572,1.516304 0.111919,0.133323 0.499269,-0.303424 0.499269,-0.563033 0,-0.143775 0.156104,-0.229262 0.4191,-0.229262 0.506677,0 0.515408,0.118057 0.08308,1.133978 -0.379943,0.892942 -0.851695,1.268994 -1.561598,1.245023 -1.011582,-0.03418 -1.275292,-0.744246 -0.960014,-2.585164 0.124274,-0.725726 0.193489,-1.358186 0.153802,-1.40544 -0.185738,-0.221219 -0.371422,0.226086 -0.583909,1.406842 -0.127344,0.707575 -0.291386,1.569138 -0.364543,1.914525 l -0.132979,0.628015 -1.146572,0.002 c -0.630608,10e-4 -1.300004,-10e-4 -1.487567,-0.004 -0.417963,-0.008 -0.986499,-0.613543 -0.986499,-1.050502 0,-0.204893 -0.0699,-0.289692 -0.192564,-0.233627 -0.386371,0.176583 -0.472784,-0.212064 -0.282257,-1.269418 0.446934,-2.48031 0.27342,-2.772754 -1.617531,-2.72632 l -1.318868,0.03241 -0.179123,1.081748 c -0.0985,0.594943 -0.21254,1.250236 -0.253365,1.456188 -0.06197,0.312631 -0.01611,0.374465 0.277759,0.374465 0.193623,0 0.352002,0.0399 0.352002,0.08858 0,0.270298 -0.474609,1.374827 -0.729694,1.698228 l -0.29718,0.37674 h 0.643281 0.643255 l 0.160682,-0.956945 c 0.442357,-2.63435 0.769646,-3.517212 1.140301,-3.075755 0.127212,0.151501 0.110199,0.501994 -0.07377,1.521645 -0.258313,1.431634 -0.202777,2.094283 0.19685,2.349024 0.335783,0.213995 0.921015,0.205766 1.271905,-0.01791 0.155258,-0.09901 0.31369,-0.142478 0.352134,-0.09671 0.136472,0.16256 -0.554646,0.47633 -1.049152,0.47633 -0.370338,0 -0.586132,-0.116126 -0.821505,-0.441987 -0.366523,-0.507504 -0.385838,-0.913799 -0.114984,-2.418881 0.106892,-0.594095 0.166529,-1.11334 0.132477,-1.153874 -0.213598,-0.254397 -0.515144,0.765228 -0.894503,3.024531 l -0.160682,0.956919 h -1.025842 -1.025843 l -0.09684,0.682651 c -0.140865,0.993034 -0.696966,1.660287 -1.469364,1.763078 -0.498131,0.0663 -0.701913,0.01011 -1.008565,-0.278051 z m 9.317435,-2.595589 c 0.325067,-0.387165 0.281993,-0.903446 -0.07541,-0.903446 -0.328348,0 -0.324829,-0.07869 0.10623,-2.371514 0.171,-0.909452 0.262308,-1.123368 0.479478,-1.123368 0.147558,0 0.268287,-0.112342 0.268287,-0.249634 0,-0.137292 -0.0943,-0.249634 -0.209629,-0.249634 -0.242861,0 -0.260165,-0.208227 -0.07959,-0.95803 l 0.12999,-0.539777 h -0.539221 c -0.583962,0 -0.978376,0.335465 -0.978376,0.832115 0,0.169995 -0.0962,0.423624 -0.213757,0.563615 -0.129884,0.154729 -0.182166,0.40431 -0.133271,0.63635 0.04426,0.209973 -0.01119,0.849683 -0.123216,1.421553 l -0.203676,1.039786 h 0.336973 c 0.414126,0 0.420476,0.188648 0.03791,1.129824 -0.248418,0.611187 -0.266145,0.760412 -0.104802,0.882094 0.313584,0.236511 1.064472,0.173117 1.302121,-0.109934 z m 1.667721,-0.02971 c 0.03831,-0.160179 0.17661,-0.890349 0.307393,-1.62261 0.269214,-1.507569 0.558298,-2.299732 0.802879,-2.200196 0.183038,0.07451 0.188912,0.624893 0.02468,2.326746 -0.09319,0.965703 -0.07289,1.171972 0.14306,1.456187 0.404575,0.532395 1.260819,0.449792 1.745536,-0.168433 0.215635,-0.274744 0.457729,-0.724086 0.537898,-0.998538 0.128587,-0.439155 0.114564,-0.498978 -0.116681,-0.498978 -0.144463,0 -0.302684,0.14986 -0.351632,0.333005 -0.04868,0.183171 -0.211137,0.411083 -0.360627,0.506465 -0.413618,0.263544 -0.471747,-0.15291 -0.225155,-1.611981 0.117739,-0.696781 0.178329,-1.388402 0.134408,-1.536965 -0.180975,-0.61132 -0.498686,-0.852593 -1.122786,-0.852593 h -0.622696 l 0.09499,-0.624073 c 0.0522,-0.343244 0.130201,-0.798618 0.173276,-1.011952 0.07609,-0.377164 0.0595,-0.384598 -0.603436,-0.269901 -0.374941,0.06488 -0.687599,0.127052 -0.694795,0.138218 -0.007,0.01109 -0.199682,1.068758 -0.427752,2.350188 l -0.414682,2.329947 0.322951,0.0526 c 0.177614,0.02889 0.32295,0.126286 0.32295,0.216297 0,0.26752 -0.430424,1.200891 -0.739378,1.603296 l -0.287496,0.374464 h 0.643784 c 0.493395,0 0.660003,-0.06802 0.713343,-0.291253 z m -7.42315,-0.58248 c 0.348907,-0.635662 0.432965,-1.123342 0.193596,-1.123342 -0.261382,0 -0.30652,0.09279 -0.424841,0.873708 -0.108903,0.718846 -0.05705,0.774832 0.231245,0.249634 z m 6.5355,-0.166423 c 0.152294,-0.297471 0.277124,-0.634497 0.277415,-0.748903 5.3e-4,-0.21799 -0.416216,-0.30017 -0.422036,-0.08319 -0.002,0.06858 -0.05808,0.405632 -0.125016,0.748877 -0.149251,0.765545 -0.08919,0.784092 0.269637,0.08321 z M 65.354204,49.801648 c 0.326734,-0.389122 0.287073,-1.19253 -0.08043,-1.630256 -0.172694,-0.205634 -0.190606,-0.194787 -0.1338,0.08102 0.04839,0.235055 -0.05408,0.383778 -0.391398,0.56806 -0.525439,0.287047 -0.639898,0.673683 -0.314222,1.061535 0.304482,0.362665 0.567161,0.339699 0.91985,-0.0803 z m 10.879931,-0.606742 c 0.0088,-0.371211 -0.379809,-0.219604 -0.44278,0.172693 -0.102314,0.637435 0.04183,0.886381 0.251884,0.435002 0.102287,-0.219843 0.188198,-0.493289 0.190896,-0.607695 z m 1.520455,0.166423 c 0.07041,-0.160179 0.200819,-0.701834 0.289877,-1.203669 0.08911,-0.501862 0.196612,-1.077013 0.238999,-1.278149 0.06451,-0.306123 0.02961,-0.350944 -0.214022,-0.275061 -0.286808,0.0893 -0.420873,0.482891 -0.641535,1.883172 -0.05051,0.320357 -0.122767,0.713528 -0.160629,0.873707 -0.044,0.186319 0.008,0.291253 0.145257,0.291253 0.117739,0 0.271674,-0.131075 0.342053,-0.291253 z m -9.242663,3.01535 c -0.160152,-0.190738 0.185817,-0.727022 0.469,-0.727022 0.264187,0 0.266568,0.0204 0.04887,0.416031 -0.232781,0.423122 -0.359701,0.499348 -0.51787,0.310991 z M 56.431861,47.744698 55,44.327022 h 0.91698 0.916982 l 0.973532,2.435516 c 0.535437,1.339533 1.007189,2.395406 1.048358,2.346405 0.04114,-0.049 0.507789,-1.145011 1.036982,-2.435516 l 0.962157,-2.346405 h 0.9212 0.9212 l -1.466771,3.370078 -1.466744,3.370077 -0.950066,0.0476 -0.950092,0.0476 z m 2.124192,-3.49332 c -0.415846,-0.495247 -0.437356,-0.976921 -0.06353,-1.422136 0.379783,-0.452302 1.04275,-0.433702 1.319583,0.03699 0.319617,0.543428 0.266065,1.058307 -0.150653,1.4487 -0.477044,0.446881 -0.686938,0.434816 -1.105403,-0.06361 z m 1.252008,-0.460216 c 0.277125,-0.944431 -0.796501,-1.552112 -1.258517,-0.712338 -0.212407,0.38608 -0.212011,0.446749 0.0054,0.841904 0.329168,0.598329 1.061747,0.522605 1.25312,-0.129566 z m -0.896302,-1.960513 c -0.153723,-0.183059 -0.27948,-0.486029 -0.27948,-0.673258 0,-0.387962 0.587084,-1.157391 0.8831,-1.157391 0.357929,0 0.933477,0.674399 0.933477,1.09383 0,0.523481 -0.463789,1.06966 -0.908288,1.06966 -0.192141,0 -0.475113,-0.14977 -0.628809,-0.332841 z m 1.191577,-0.17146 c 0.389308,-0.512339 0.140229,-1.225839 -0.451882,-1.29453 -0.347821,-0.0403 -0.493368,0.0401 -0.677307,0.37446 -0.217408,0.39516 -0.217778,0.455811 -0.0054,0.841891 0.279559,0.508161 0.781553,0.54274 1.13456,0.0782 z"
             inkscape:connector-curvature="0"
             style="fill:#ecf0f1;stroke-width:0.05956514" />
        </g>
      </g>
    </clipPath>
    <linearGradient
       inkscape:collect="always"
       xlink:href="#linearGradient960"
       id="linearGradient5352"
       x1="50.508545"
       y1="72.542351"
       x2="59.301804"
       y2="72.542351"
       gradientUnits="userSpaceOnUse" />
    <linearGradient
       inkscape:collect="always"
       xlink:href="#linearGradient960"
       id="linearGradient9084"
       gradientUnits="userSpaceOnUse"
       x1="50.508545"
       y1="72.542351"
       x2="59.301804"
       y2="72.542351"
       gradientTransform="translate(1.0583333,-1.0583414)" />
    <linearGradient
       inkscape:collect="always"
       xlink:href="#linearGradient960"
       id="linearGradient9086"
       gradientUnits="userSpaceOnUse"
       x1="50.508545"
       y1="72.542351"
       x2="59.301804"
       y2="72.542351"
       gradientTransform="translate(1.0583333,-1.0583414)" />
    <linearGradient
       inkscape:collect="always"
       xlink:href="#linearGradient960"
       id="linearGradient9088"
       gradientUnits="userSpaceOnUse"
       x1="50.508545"
       y1="72.542351"
       x2="59.301804"
       y2="72.542351"
       gradientTransform="translate(1.0583333,-1.0583414)" />
    <linearGradient
       inkscape:collect="always"
       xlink:href="#linearGradient960-7-613"
       id="linearGradient9090"
       gradientUnits="userSpaceOnUse"
       x1="50.508545"
       y1="72.542351"
       x2="59.301804"
       y2="72.542351"
       gradientTransform="translate(1.0583333,-1.0583414)" />
    <linearGradient
       osb:paint="solid"
       id="linearGradient960-8">
      <stop
         id="stop958-6"
         offset="0"
         style="stop-color:#fcffff;stop-opacity:1;" />
    </linearGradient>
    <linearGradient
       gradientTransform="matrix(0.26458333,0,0,0.26458333,68.035719,12.662187)"
       inkscape:collect="always"
       xlink:href="#linearGradient960-8"
       id="linearGradient910-979"
       x1="357.83218"
       y1="265.97125"
       x2="414.92593"
       y2="265.97125"
       gradientUnits="userSpaceOnUse" />
    <linearGradient
       gradientTransform="matrix(0.26458333,0,0,0.26458333,68.035719,12.662187)"
       inkscape:collect="always"
       xlink:href="#linearGradient960-8"
       id="linearGradient900-4-765"
       x1="417.41031"
       y1="269.95563"
       x2="570.41772"
       y2="269.95563"
       gradientUnits="userSpaceOnUse" />
    <linearGradient
       gradientTransform="matrix(0.26458333,0,0,0.26458333,68.035719,12.662187)"
       inkscape:collect="always"
       xlink:href="#linearGradient960-7-613"
       id="linearGradient962-6-459"
       x1="377.37497"
       y1="304.65262"
       x2="393.40622"
       y2="304.65262"
       gradientUnits="userSpaceOnUse" />
    <linearGradient
       id="linearGradient960-7-613"
       osb:paint="solid">
      <stop
         style="stop-color:#969696;stop-opacity:0.3137255;;opacity:1"
         offset="0"
         id="stop18625" />
    </linearGradient>
    <linearGradient
       gradientTransform="matrix(0.26458333,0,0,0.26458333,68.035719,12.662187)"
       inkscape:collect="always"
       xlink:href="#linearGradient960-8"
       id="linearGradient956-933"
       x1="382.28049"
       y1="231.14088"
       x2="398.31174"
       y2="231.14088"
       gradientUnits="userSpaceOnUse" />
    <linearGradient
       inkscape:collect="always"
       xlink:href="#linearGradient18766"
       id="linearGradient18768"
       x1="0"
       y1="50.937495"
       x2="79.375"
       y2="50.937495"
       gradientUnits="userSpaceOnUse" />
  </defs>
  <sodipodi:namedview
     id="base"
     pagecolor="#ffffff"
     bordercolor="#666666"
     borderopacity="1.0"
     inkscape:pageopacity="0.0"
     inkscape:pageshadow="2"
     inkscape:zoom="1.4"
     inkscape:cx="200.50371"
     inkscape:cy="184.90022"
     inkscape:document-units="mm"
     inkscape:current-layer="layer1"
     showgrid="true"
     showguides="true"
     inkscape:window-width="1920"
     inkscape:window-height="1016"
     inkscape:window-x="0"
     inkscape:window-y="27"
     inkscape:window-maximized="1"
     units="px"
     inkscape:pagecheckerboard="true"
     borderlayer="false"
     showborder="false"
     inkscape:measure-start="210,69.9999"
     inkscape:measure-end="0,79.9999"
     inkscape:lockguides="true">
    <inkscape:grid
       type="xygrid"
       id="grid4747"
       originx="0"
       originy="-195.79168" />
  </sodipodi:namedview>
  <metadata
     id="metadata5">
    <rdf:RDF>
      <cc:Work
         rdf:about="">
        <dc:format>image/svg+xml</dc:format>
        <dc:type
           rdf:resource="http://purl.org/dc/dcmitype/StillImage" />
        <dc:title></dc:title>
      </cc:Work>
    </rdf:RDF>
  </metadata>
  <g
     inkscape:label="bg"
     inkscape:groupmode="layer"
     id="layer1"
     transform="translate(0,-0.66665856)"
     style="opacity:0.98999999">
    <rect
       style="opacity:1;fill:#9b59b6;fill-opacity:1;stroke:url(#linearGradient18768);stroke-width:0.52916667;stroke-miterlimit:4;stroke-dasharray:6.35,0.52916667;stroke-dashoffset:0;stroke-opacity:1"
       id="rect4749"
       height="100.54166"
       x="0"
       y="0.66666663"
       width="79.375" />
    <rect
       style="opacity:0.25;fill:none;fill-opacity:1;stroke:#ffffff;stroke-width:0.3175;stroke-miterlimit:4;stroke-dasharray:none;stroke-dashoffset:0;stroke-opacity:0.94117647"
       id="rect4910"
       width="47.307499"
       height="9.260417"
       x="16.033751"
       y="28.289156"
       inkscape:label="rect4910" />
    <path
       style="opacity:0.25;fill:none;fill-rule:evenodd;stroke:#ffffff;stroke-width:0.26458332px;stroke-linecap:butt;stroke-linejoin:miter;stroke-opacity:0.94117647"
       d="m 15.875,56.057178 h 47.624999 v 0"
       id="path5340"
       inkscape:connector-curvature="0" />
    <path
       inkscape:connector-curvature="0"
       d="M 28.348666,15.821066 H 26.099238 L 22.480371,9.3375886 h 2.155701 l 2.603505,4.8791234 2.59829,-4.8791234 h 2.155701 z"
       id="path28"
       style="opacity:1;fill:#ffffff;fill-opacity:0.78431373;fill-rule:nonzero;stroke:url(#linearGradient910-979);stroke-width:0.26458329"
       inkscape:export-xdpi="97.75"
       inkscape:export-ydpi="97.75" />
    <path
       inkscape:connector-curvature="0"
       d="m 34.880849,15.995658 q -0.723771,0 -1.286128,-0.233576 -0.562357,-0.233574 -0.874775,-0.665335 -0.312424,-0.431759 -0.312424,-0.993283 0,-0.474229 0.223905,-0.86588 0.223898,-0.394009 0.609217,-0.627585 0.38792,-0.233574 0.861758,-0.233574 0.445203,0 0.762829,0.21234 0.320227,0.209981 0.453005,0.825771 -0.739389,0 -1.002345,0.20998 -0.260349,0.209983 -0.260349,0.57568 0,0.332669 0.210881,0.526135 0.213489,0.191106 0.580583,0.191106 0.47123,0 0.775839,-0.283122 0.304615,-0.285479 0.304615,-0.724317 0,-0.39873 -0.257748,-0.771506 -0.255141,-0.375135 -0.796672,-0.941378 -0.588391,-0.611071 -0.903417,-1.073502 -0.315025,-0.462431 -0.315025,-1.031032 0,-0.5662434 0.346268,-1.0145184 0.346267,-0.4482757 0.939867,-0.7007265 0.593593,-0.252449 1.325179,-0.252449 0.939867,0 1.528259,0.4199636 0.590992,0.4176029 0.590992,1.1324849 0,0.4765874 -0.281175,0.7927394 -0.281182,0.316153 -0.749812,0.316153 -0.518097,0 -0.960693,-0.542649 0.335851,-0.224139 0.429578,-0.4034494 0.09633,-0.17931 0.09633,-0.375135 0,-0.226497 -0.13798,-0.351543 -0.137987,-0.125045 -0.398336,-0.125045 -0.328042,0 -0.538924,0.2147 -0.210887,0.212341 -0.210887,0.561524 0,0.3255894 0.221297,0.6275854 0.223905,0.301997 0.734187,0.811615 0.432186,0.422323 0.705552,0.736115 0.273367,0.311434 0.473838,0.733757 0.200466,0.419963 0.200466,0.917784 0,0.679491 -0.413954,1.229219 -0.411354,0.549726 -1.116906,0.86352 -0.705545,0.311433 -1.556893,0.311433 z m 5.128165,2.241377 q -0.588393,0 -1.002353,-0.294919 -0.413954,-0.292559 -0.413954,-0.842286 0,-0.653538 0.54934,-1.026315 0.54934,-0.370415 1.223644,-0.570961 l 0.09633,0.01887 q 0.03904,0.09437 -0.325436,0.226496 -0.364494,0.132124 -0.734188,0.132124 -0.606617,0 -0.986727,-0.349183 -0.37751,-0.349183 -0.37751,-1.012158 0,-0.259527 0.09113,-0.667695 l 0.762822,-3.262971 h 1.986474 l -0.825308,3.531939 q -0.02601,0.09437 -0.02601,0.195826 0,0.224137 0.09894,0.224137 0.179639,0 0.34366,-0.167512 0.164021,-0.167515 0.275968,-0.476588 l 0.778447,-3.3078 h 1.989079 L 42.482375,14.9717 q 0.08852,-0.02831 0.361885,-0.299638 0.275974,-0.273684 0.523306,-0.981487 h 0.908618 q -0.395729,1.170235 -0.929451,1.606714 -0.531114,0.436478 -1.070038,0.563883 l -0.132779,0.573321 q -0.229106,1.012158 -0.814891,1.406169 -0.58579,0.39637 -1.319977,0.39637 z m -0.244732,-1.153721 q 0.06247,0 0.187455,-0.162793 0.124963,-0.162796 0.213483,-0.53793 l 0.04427,0.0094 q -0.585786,0.238293 -0.585786,0.570961 0,0.05191 0.03388,0.08494 0.03382,0.03539 0.106737,0.03539 z m 7.614339,-1.203265 q -0.752413,0 -1.116905,-0.377495 -0.364487,-0.377495 -0.364487,-0.915425 0,-0.221778 0.05466,-0.488383 0.05731,-0.266607 0.117155,-0.514337 0.05989,-0.247732 0.08331,-0.316153 0.08071,-0.327949 0.153611,-0.64646 0.07289,-0.318512 0.07289,-0.50018 0,-0.292559 -0.164021,-0.292559 -0.169223,0 -0.335852,0.193466 -0.166622,0.193466 -0.281175,0.545008 l -0.760222,3.253535 h -1.989079 l 1.226251,-5.233024 h 1.986472 l -0.12497,0.228856 q 0.169229,-0.266606 0.984126,-0.266606 0.627443,0 1.015363,0.327948 0.387926,0.32559 0.387926,0.962613 0,0.299637 -0.07811,0.655897 -0.0755,0.356262 -0.21609,0.854083 -0.08331,0.297277 -0.151004,0.570961 -0.06508,0.271325 -0.06508,0.412886 0,0.122686 0.03646,0.165154 0.03905,0.04011 0.166622,0.04011 0.216089,0 0.364492,-0.158076 0.148397,-0.160435 0.380111,-0.691288 H 49.6697 q -0.515496,1.382575 -1.088264,1.786024 -0.572773,0.403447 -1.202823,0.403447 z m 2.591722,0 q -0.606618,0 -0.986726,-0.349183 -0.377505,-0.349182 -0.377505,-1.012158 0,-0.259527 0.09112,-0.667694 l 0.583184,-2.474952 h -0.346263 l 0.169225,-0.78802 h 0.356682 l 0.315018,-1.3117964 2.046356,-0.25009 -0.374901,1.5618864 h 0.637857 l -0.174437,0.78802 h -0.640458 l -0.648277,2.746277 q -0.03646,0.122686 -0.03646,0.261886 0,0.103811 0.03124,0.129765 0.03382,0.02595 0.184845,0.02595 0.218697,0 0.432187,-0.188747 0.213481,-0.188748 0.361886,-0.660616 h 0.924243 q -0.5207,1.373138 -1.19761,1.781305 -0.67691,0.408166 -1.351219,0.408166 z m 5.640827,0 q -0.752414,0 -1.116907,-0.377495 -0.364485,-0.377495 -0.364485,-0.915425 0,-0.221778 0.05466,-0.488383 0.05725,-0.266607 0.117155,-0.514337 0.05989,-0.247732 0.08331,-0.316153 0.08071,-0.327949 0.153607,-0.64646 0.0729,-0.318512 0.0729,-0.50018 0,-0.292559 -0.164021,-0.292559 -0.16923,0 -0.335851,0.193466 -0.166624,0.193466 -0.281176,0.545008 l -0.76023,3.253535 h -1.989071 l 1.634995,-6.9506274 2.04375,-0.2500903 -0.481647,2.0030827 q 0.05989,-0.07314 0.874781,-0.07314 0.627444,0 1.015363,0.327948 0.387918,0.32559 0.387918,0.962613 0,0.299637 -0.0781,0.655897 -0.0755,0.356262 -0.21609,0.854083 -0.08331,0.297277 -0.151003,0.570961 -0.06509,0.271325 -0.06509,0.412886 0,0.122686 0.03646,0.165154 0.03905,0.04011 0.166621,0.04011 0.216091,0 0.364488,-0.158076 0.148402,-0.160435 0.380116,-0.691288 h 0.908619 q -0.515491,1.382575 -1.088263,1.786024 -0.572768,0.403447 -1.202817,0.403447 z"
       id="path30"
       style="opacity:1;fill:#ffffff;fill-opacity:0.35294118;fill-rule:nonzero;stroke:url(#linearGradient900-4-765);stroke-width:0.26458329"
       inkscape:export-xdpi="97.75"
       inkscape:export-ydpi="97.75" />
    <path
       inkscape:connector-curvature="0"
       d="m 26.999369,18.230209 q -0.442589,0 -0.752412,-0.280763 -0.309811,-0.28312 -0.309811,-0.684209 0,-0.401088 0.30721,-0.686568 0.309816,-0.28784 0.755013,-0.28784 0.442596,0 0.75762,0.28784 0.317626,0.28548 0.317626,0.686568 0,0.403448 -0.317626,0.684209 -0.315024,0.280763 -0.75762,0.280763 z m -0.531108,2.319232 q -0.445203,0 -0.75502,-0.280756 -0.309817,-0.283125 -0.309817,-0.684214 0,-0.401089 0.307216,-0.686571 0.309817,-0.287837 0.757621,-0.287837 0.442589,0 0.757614,0.287837 0.315025,0.285482 0.315025,0.686571 0,0.403446 -0.315025,0.684214 -0.315025,0.280756 -0.757614,0.280756 z"
       id="path54"
       style="opacity:1;fill:#ffffff;fill-opacity:0.78431373;fill-rule:nonzero;stroke:url(#linearGradient962-6-459);stroke-width:0.26458329"
       inkscape:export-xdpi="97.75"
       inkscape:export-ydpi="97.75" />
    <path
       inkscape:connector-curvature="0"
       d="m 28.149996,7.1300843 q -0.442596,0 -0.752413,-0.2807627 -0.309816,-0.2831214 -0.309816,-0.6842096 0,-0.4010888 0.307209,-0.6865689 0.309823,-0.2878399 0.75502,-0.2878399 0.442596,0 0.757621,0.2878399 0.317626,0.2854801 0.317626,0.6865689 0,0.403448 -0.317626,0.6842096 -0.315025,0.2807627 -0.757621,0.2807627 z m -0.531115,2.3192343 q -0.445196,0 -0.755013,-0.280761 -0.309817,-0.283121 -0.309817,-0.6842102 0,-0.4010882 0.30721,-0.6865697 0.309817,-0.2878398 0.75762,-0.2878398 0.442596,0 0.757621,0.2878398 0.315019,0.2854815 0.315019,0.6865697 0,0.4034472 -0.315019,0.6842102 -0.315025,0.280761 -0.757621,0.280761 z"
       id="path78"
       style="opacity:1;fill:#f8ffff;fill-opacity:0.35294118;fill-rule:nonzero;stroke:url(#linearGradient956-933);stroke-width:0.26458329"
       inkscape:export-xdpi="97.75"
       inkscape:export-ydpi="97.75" />
  </g>
  <g
     inkscape:groupmode="layer"
     id="layer2"
     inkscape:label="logo"
     transform="translate(0,8.0744425e-6)">
    <circle
       style="opacity:0.25;fill:none;fill-opacity:1;stroke:#25aea3;stroke-width:0.79374999;stroke-miterlimit:4;stroke-dasharray:none;stroke-dashoffset:0;stroke-opacity:0.99337751"
       id="path5342"
       cx="53.370235"
       cy="82.512215"
       r="3.96875" />
    <g
       aria-label="OUT"
       style="font-style:normal;font-weight:normal;font-size:4.23333311px;line-height:125%;font-family:sans-serif;letter-spacing:10.53570843px;word-spacing:0px;fill:#fefefe;fill-opacity:1;stroke:url(#linearGradient9090);stroke-width:0.5291667;stroke-linecap:butt;stroke-linejoin:miter;stroke-miterlimit:4;stroke-dasharray:none;stroke-opacity:1"
       id="text5346"
       transform="translate(-1.0583333,1.0583333)">
      <path
         d="m 51.938947,71.280414 q -0.454752,0 -0.72347,0.338997 -0.26665,0.338998 -0.26665,0.923975 0,0.58291 0.26665,0.921907 0.268718,0.338998 0.72347,0.338998 0.454753,0 0.719336,-0.338998 0.26665,-0.338997 0.26665,-0.921907 0,-0.584977 -0.26665,-0.923975 -0.264583,-0.338997 -0.719336,-0.338997 z m 0,-0.338997 q 0.649056,0 1.037663,0.436149 0.388607,0.434082 0.388607,1.16582 0,0.729671 -0.388607,1.16582 -0.388607,0.434082 -1.037663,0.434082 -0.651123,0 -1.041797,-0.434082 -0.388606,-0.434082 -0.388606,-1.16582 0,-0.731738 0.388606,-1.16582 0.390674,-0.436149 1.041797,-0.436149 z"
         style="letter-spacing:0px;opacity:0.5;fill:#fefefe;fill-opacity:1;stroke:url(#linearGradient9084);stroke-width:0.5291667;stroke-miterlimit:4;stroke-dasharray:none"
         id="path5388"
         inkscape:connector-curvature="0" />
      <path
         d="m 53.970864,70.997227 h 0.419613 v 1.874821 q 0,0.496094 0.179834,0.715202 0.179834,0.217041 0.58291,0.217041 0.401009,0 0.580843,-0.217041 0.179834,-0.219108 0.179834,-0.715202 v -1.874821 h 0.419613 v 1.926497 q 0,0.603581 -0.299724,0.911573 -0.297656,0.307991 -0.880566,0.307991 -0.584977,0 -0.8847,-0.307991 -0.297657,-0.307992 -0.297657,-0.911573 z"
         style="letter-spacing:0px;opacity:0.5;fill:#fefefe;fill-opacity:1;stroke:url(#linearGradient9086);stroke-width:0.5291667;stroke-miterlimit:4;stroke-dasharray:none"
         id="path5390"
         inkscape:connector-curvature="0" />
      <path
         d="m 56.691112,70.997227 h 2.610693 v 0.3514 h -1.09554 v 2.734717 h -0.419613 v -2.734717 h -1.09554 z"
         style="letter-spacing:0px;opacity:0.5;fill:#fefefe;fill-opacity:1;stroke:url(#linearGradient9088);stroke-width:0.5291667;stroke-miterlimit:4;stroke-dasharray:none"
         id="path5392"
         inkscape:connector-curvature="0" />
      <g
         aria-label="~image source~"
         style="font-style:normal;font-weight:normal;font-size:4.23333311px;line-height:125%;font-family:sans-serif;letter-spacing:10.53570843px;word-spacing:0px;fill:#ffffff;fill-opacity:0.60596026;stroke:none;stroke-width:0.26458332px;stroke-linecap:butt;stroke-linejoin:miter;stroke-opacity:1"
         id="text18735">
        <path
           d="m 30.905262,94.38873 v 0.245291 q -0.144694,0.108865 -0.268718,0.155718 -0.122645,0.04685 -0.256315,0.04685 -0.151584,0 -0.352778,-0.08131 -0.01516,-0.0055 -0.02205,-0.0083 -0.0096,-0.0041 -0.03032,-0.01102 -0.213596,-0.08544 -0.343132,-0.08544 -0.121267,0 -0.239778,0.05374 -0.118512,0.05236 -0.253559,0.166743 v -0.245291 q 0.144694,-0.108865 0.267339,-0.155719 0.124024,-0.04823 0.257693,-0.04823 0.151584,0 0.354156,0.08268 0.01378,0.0055 0.02067,0.0083 0.01102,0.0041 0.03032,0.01102 0.213595,0.08544 0.343131,0.08544 0.118511,0 0.234267,-0.05237 0.117133,-0.05237 0.259071,-0.168121 z"
           style="font-size:2.82222223px;letter-spacing:0px;fill:#ffffff;fill-opacity:0.60596026;stroke-width:0.26458332px"
           id="path18737"
           inkscape:connector-curvature="0" />
        <path
           d="m 31.470257,93.971185 h 0.25356 v 1.543402 h -0.25356 z m 0,-0.600825 h 0.25356 v 0.321083 h -0.25356 z"
           style="font-size:2.82222223px;letter-spacing:0px;fill:#ffffff;fill-opacity:0.60596026;stroke-width:0.26458332px"
           id="path18739"
           inkscape:connector-curvature="0" />
        <path
           d="m 33.454633,94.267463 q 0.09508,-0.170877 0.227376,-0.252181 0.132292,-0.0813 0.311437,-0.0813 0.241156,0 0.37207,0.169498 0.130913,0.168121 0.130913,0.479558 v 0.931553 h -0.254937 v -0.923285 q 0,-0.221864 -0.07855,-0.329351 -0.07855,-0.107487 -0.239778,-0.107487 -0.19706,0 -0.311437,0.130913 -0.114377,0.130914 -0.114377,0.356912 v 0.872298 h -0.254937 v -0.923285 q 0,-0.223242 -0.07855,-0.329351 -0.07855,-0.107487 -0.242535,-0.107487 -0.194304,0 -0.308681,0.132291 -0.114377,0.130914 -0.114377,0.355534 v 0.872298 h -0.254937 v -1.543402 h 0.254937 v 0.239778 q 0.08682,-0.141938 0.208084,-0.209462 0.121267,-0.06752 0.28801,-0.06752 0.168121,0 0.285254,0.08544 0.118511,0.08544 0.175011,0.248047 z"
           style="font-size:2.82222223px;letter-spacing:0px;fill:#ffffff;fill-opacity:0.60596026;stroke-width:0.26458332px"
           id="path18741"
           inkscape:connector-curvature="0" />
        <path
           d="m 35.704969,94.738752 q -0.307303,0 -0.425814,0.07028 -0.118511,0.07028 -0.118511,0.239778 0,0.135048 0.08819,0.214974 0.08957,0.07855 0.242535,0.07855 0.21084,0 0.337619,-0.148828 0.128158,-0.150207 0.128158,-0.398254 v -0.0565 z m 0.50574,-0.104731 v 0.880566 H 35.95715 v -0.234266 q -0.08682,0.14056 -0.216352,0.208084 -0.129536,0.06615 -0.316949,0.06615 -0.237023,0 -0.377582,-0.132292 -0.139182,-0.13367 -0.139182,-0.356912 0,-0.260449 0.173633,-0.392741 0.17501,-0.132292 0.520898,-0.132292 h 0.355534 v -0.0248 q 0,-0.175011 -0.115755,-0.270096 -0.114378,-0.09646 -0.322461,-0.09646 -0.132292,0 -0.257693,0.03169 -0.125402,0.03169 -0.241157,0.09508 v -0.234266 q 0.139182,-0.05374 0.270095,-0.07993 0.130914,-0.02756 0.254937,-0.02756 0.334864,0 0.500228,0.173632 0.165365,0.173633 0.165365,0.526411 z"
           style="font-size:2.82222223px;letter-spacing:0px;fill:#ffffff;fill-opacity:0.60596026;stroke-width:0.26458332px"
           id="path18743"
           inkscape:connector-curvature="0" />
        <path
           d="m 37.749977,94.724972 q 0,-0.275608 -0.114377,-0.427192 -0.112999,-0.151585 -0.318327,-0.151585 -0.203949,0 -0.318326,0.151585 -0.113,0.151584 -0.113,0.427192 0,0.274229 0.113,0.425813 0.114377,0.151585 0.318326,0.151585 0.205328,0 0.318327,-0.151585 0.114377,-0.151584 0.114377,-0.425813 z m 0.253559,0.598068 q 0,0.394119 -0.17501,0.585666 -0.175011,0.192926 -0.536057,0.192926 -0.13367,0 -0.252181,-0.02067 -0.118512,-0.01929 -0.230133,-0.06063 v -0.246668 q 0.111621,0.06063 0.220486,0.08957 0.108866,0.02894 0.221865,0.02894 0.249425,0 0.373448,-0.130914 0.124023,-0.129535 0.124023,-0.392741 v -0.125401 q -0.07855,0.136426 -0.201193,0.20395 -0.122646,0.06752 -0.293522,0.06752 -0.283876,0 -0.457509,-0.216352 -0.173633,-0.216352 -0.173633,-0.573263 0,-0.35829 0.173633,-0.574642 0.173633,-0.216352 0.457509,-0.216352 0.170876,0 0.293522,0.06752 0.122645,0.06752 0.201193,0.20395 v -0.234266 h 0.253559 z"
           style="font-size:2.82222223px;letter-spacing:0px;fill:#ffffff;fill-opacity:0.60596026;stroke-width:0.26458332px"
           id="path18745"
           inkscape:connector-curvature="0" />
        <path
           d="m 39.845973,94.679496 v 0.124024 h -1.16582 q 0.01654,0.261827 0.157096,0.399631 0.141938,0.136426 0.394119,0.136426 0.146072,0 0.282498,-0.03583 0.137804,-0.03583 0.272852,-0.107487 v 0.239778 q -0.136426,0.05788 -0.279742,0.0882 -0.143316,0.03032 -0.290766,0.03032 -0.369314,0 -0.585666,-0.214974 -0.214974,-0.214974 -0.214974,-0.581533 0,-0.37896 0.203949,-0.600824 0.205328,-0.223242 0.552594,-0.223242 0.311436,0 0.491959,0.201193 0.181901,0.199816 0.181901,0.544325 z m -0.253559,-0.07441 q -0.0028,-0.208084 -0.117133,-0.332107 -0.112999,-0.124023 -0.300412,-0.124023 -0.212218,0 -0.340376,0.119889 -0.126779,0.119889 -0.146072,0.337619 z"
           style="font-size:2.82222223px;letter-spacing:0px;fill:#ffffff;fill-opacity:0.60596026;stroke-width:0.26458332px"
           id="path18747"
           inkscape:connector-curvature="0" />
        <path
           d="m 42.144542,94.01666 v 0.239779 q -0.107487,-0.05512 -0.223243,-0.08268 -0.115755,-0.02756 -0.239778,-0.02756 -0.188791,0 -0.283876,0.05788 -0.09371,0.05788 -0.09371,0.173633 0,0.08819 0.06752,0.139182 0.06752,0.04961 0.271474,0.09508 l 0.08682,0.01929 q 0.270096,0.05788 0.383095,0.163986 0.114377,0.104731 0.114377,0.293523 0,0.214974 -0.170877,0.340375 -0.169499,0.125402 -0.467155,0.125402 -0.124023,0 -0.259071,-0.02481 -0.13367,-0.02343 -0.282498,-0.07166 v -0.261827 q 0.14056,0.07304 0.276986,0.110243 0.136426,0.03583 0.270095,0.03583 0.179145,0 0.275608,-0.06063 0.09646,-0.06201 0.09646,-0.173633 0,-0.103353 -0.07028,-0.158474 -0.0689,-0.05512 -0.304547,-0.106109 l -0.08819,-0.02067 q -0.235645,-0.04961 -0.340376,-0.151584 -0.104731,-0.103353 -0.104731,-0.282498 0,-0.21773 0.154341,-0.336241 0.15434,-0.118511 0.438216,-0.118511 0.14056,0 0.264583,0.02067 0.124024,0.02067 0.228755,0.06201 z"
           style="font-size:2.82222223px;letter-spacing:0px;fill:#ffffff;fill-opacity:0.60596026;stroke-width:0.26458332px"
           id="path18749"
           inkscape:connector-curvature="0" />
        <path
           d="m 43.230435,94.148952 q -0.203949,0 -0.322461,0.159852 -0.118511,0.158474 -0.118511,0.43546 0,0.276986 0.117133,0.436838 0.118512,0.158475 0.323839,0.158475 0.202572,0 0.321083,-0.159853 0.118512,-0.159852 0.118512,-0.43546 0,-0.27423 -0.118512,-0.434082 -0.118511,-0.16123 -0.321083,-0.16123 z m 0,-0.214974 q 0.33073,0 0.519521,0.214974 0.188791,0.214974 0.188791,0.595312 0,0.378961 -0.188791,0.595313 -0.188791,0.214974 -0.519521,0.214974 -0.332107,0 -0.520898,-0.214974 -0.187413,-0.216352 -0.187413,-0.595313 0,-0.380338 0.187413,-0.595312 0.188791,-0.214974 0.520898,-0.214974 z"
           style="font-size:2.82222223px;letter-spacing:0px;fill:#ffffff;fill-opacity:0.60596026;stroke-width:0.26458332px"
           id="path18751"
           inkscape:connector-curvature="0" />
        <path
           d="m 44.331488,94.905495 v -0.93431 h 0.253559 v 0.924663 q 0,0.219108 0.08544,0.329351 0.08544,0.108865 0.256315,0.108865 0.205328,0 0.323839,-0.130913 0.11989,-0.130914 0.11989,-0.356912 v -0.875054 h 0.253559 v 1.543402 h -0.253559 v -0.237022 q -0.09233,0.14056 -0.214974,0.209462 -0.121268,0.06752 -0.282498,0.06752 -0.265962,0 -0.403765,-0.165365 -0.137804,-0.165365 -0.137804,-0.483691 z m 0.638031,-0.971517 z"
           style="font-size:2.82222223px;letter-spacing:0px;fill:#ffffff;fill-opacity:0.60596026;stroke-width:0.26458332px"
           id="path18753"
           inkscape:connector-curvature="0" />
        <path
           d="m 47.043468,94.208207 q -0.04272,-0.0248 -0.09371,-0.03583 -0.04961,-0.0124 -0.110243,-0.0124 -0.214974,0 -0.330729,0.14056 -0.114377,0.139182 -0.114377,0.401009 v 0.813042 h -0.254937 v -1.543402 h 0.254937 v 0.239778 q 0.07993,-0.14056 0.208084,-0.208084 0.128157,-0.0689 0.311436,-0.0689 0.02618,0 0.05788,0.0041 0.03169,0.0028 0.07028,0.0096 z"
           style="font-size:2.82222223px;letter-spacing:0px;fill:#ffffff;fill-opacity:0.60596026;stroke-width:0.26458332px"
           id="path18755"
           inkscape:connector-curvature="0" />
        <path
           d="m 48.36225,94.03044 v 0.237023 q -0.107487,-0.05926 -0.216352,-0.0882 -0.107487,-0.03032 -0.21773,-0.03032 -0.246669,0 -0.383095,0.157096 -0.136425,0.155718 -0.136425,0.438216 0,0.282498 0.136425,0.439594 0.136426,0.155719 0.383095,0.155719 0.110243,0 0.21773,-0.02894 0.108865,-0.03032 0.216352,-0.08957 v 0.234267 q -0.106109,0.04961 -0.220486,0.07441 -0.112999,0.02481 -0.241157,0.02481 -0.348643,0 -0.553971,-0.219109 -0.205328,-0.219108 -0.205328,-0.591178 0,-0.377582 0.206706,-0.593934 0.208084,-0.216352 0.56913,-0.216352 0.117133,0 0.228754,0.0248 0.111621,0.02343 0.216352,0.07166 z"
           style="font-size:2.82222223px;letter-spacing:0px;fill:#ffffff;fill-opacity:0.60596026;stroke-width:0.26458332px"
           id="path18757"
           inkscape:connector-curvature="0" />
        <path
           d="m 50.126138,94.679496 v 0.124024 h -1.16582 q 0.01654,0.261827 0.157096,0.399631 0.141938,0.136426 0.394119,0.136426 0.146072,0 0.282498,-0.03583 0.137804,-0.03583 0.272851,-0.107487 v 0.239778 q -0.136425,0.05788 -0.279741,0.0882 -0.143316,0.03032 -0.290766,0.03032 -0.369315,0 -0.585667,-0.214974 -0.214974,-0.214974 -0.214974,-0.581533 0,-0.37896 0.20395,-0.600824 0.205328,-0.223242 0.552593,-0.223242 0.311437,0 0.49196,0.201193 0.181901,0.199816 0.181901,0.544325 z m -0.253559,-0.07441 q -0.0028,-0.208084 -0.117133,-0.332107 -0.112999,-0.124023 -0.300412,-0.124023 -0.212218,0 -0.340376,0.119889 -0.126779,0.119889 -0.146072,0.337619 z"
           style="font-size:2.82222223px;letter-spacing:0px;fill:#ffffff;fill-opacity:0.60596026;stroke-width:0.26458332px"
           id="path18759"
           inkscape:connector-curvature="0" />
        <path
           d="m 52.342024,94.38873 v 0.245291 q -0.144694,0.108865 -0.268718,0.155718 -0.122645,0.04685 -0.256315,0.04685 -0.151584,0 -0.352778,-0.08131 -0.01516,-0.0055 -0.02205,-0.0083 -0.0096,-0.0041 -0.03032,-0.01102 -0.213596,-0.08544 -0.343132,-0.08544 -0.121267,0 -0.239778,0.05374 -0.118512,0.05236 -0.253559,0.166743 v -0.245291 q 0.144694,-0.108865 0.267339,-0.155719 0.124023,-0.04823 0.257693,-0.04823 0.151584,0 0.354156,0.08268 0.01378,0.0055 0.02067,0.0083 0.01102,0.0041 0.03032,0.01102 0.213596,0.08544 0.343132,0.08544 0.118511,0 0.234266,-0.05237 0.117134,-0.05237 0.259072,-0.168121 z"
           style="font-size:2.82222223px;letter-spacing:0px;fill:#ffffff;fill-opacity:0.60596026;stroke-width:0.26458332px"
           id="path18761"
           inkscape:connector-curvature="0" />
      </g>
    </g>
  </g>
</svg>
