<?xml version="1.0" encoding="UTF-8" standalone="no"?>
<!-- Created with Inkscape (http://www.inkscape.org/) -->

<svg
   xmlns:osb="http://www.openswatchbook.org/uri/2009/osb"
   xmlns:dc="http://purl.org/dc/elements/1.1/"
   xmlns:cc="http://creativecommons.org/ns#"
   xmlns:rdf="http://www.w3.org/1999/02/22-rdf-syntax-ns#"
   xmlns:svg="http://www.w3.org/2000/svg"
   xmlns="http://www.w3.org/2000/svg"
   xmlns:xlink="http://www.w3.org/1999/xlink"
   xmlns:sodipodi="http://sodipodi.sourceforge.net/DTD/sodipodi-0.dtd"
   xmlns:inkscape="http://www.inkscape.org/namespaces/inkscape"
   width="600"
   height="380"
   viewBox="0 0 158.75001 100.54167"
   version="1.1"
   id="svg8"
   inkscape:version="0.92.2 (5c3e80d, 2017-08-06)"
   sodipodi:docname="layer.svg">
  <defs
     id="defs2">
    <linearGradient
       id="linearGradient6834"
       osb:paint="solid">
      <stop
         style="stop-color:#214040;stop-opacity:1;"
         offset="0"
         id="stop6832" />
    </linearGradient>
    <clipPath
       id="_clipPath_5pp32NuXIIutEw6PWFHnNkTIRZzkB8Bp">
      <path
         d="m 188.5,0 h 257 v 60 h -257 z"
         id="path912"
         inkscape:connector-curvature="0"
         style="fill:#ffffff" />
    </clipPath>
    <filter
       id="af9soRcblEbnDflHwfqAMgo5RvCfBtve"
       x="-2"
       y="-2"
       width="4"
       height="4">
      <feGaussianBlur
         stdDeviation="2"
         id="feGaussianBlur929" />
    </filter>
    <filter
       id="filter6500"
       x="-2"
       y="-2"
       width="4"
       height="4">
      <feGaussianBlur
         stdDeviation="2"
         id="feGaussianBlur6498" />
    </filter>
    <linearGradient
       inkscape:collect="always"
       xlink:href="#linearGradient6834"
       id="linearGradient6836"
       x1="188.5"
       y1="30"
       x2="445.5"
       y2="30"
       gradientUnits="userSpaceOnUse" />
  </defs>
  <sodipodi:namedview
     id="base"
     pagecolor="#ffffff"
     bordercolor="#666666"
     borderopacity="1.0"
     inkscape:pageopacity="0.0"
     inkscape:pageshadow="2"
     inkscape:zoom="1.4"
     inkscape:cx="302.05205"
     inkscape:cy="171.66417"
     inkscape:document-units="px"
     inkscape:current-layer="layer1"
     showgrid="false"
     units="px"
     inkscape:snap-bbox="true"
     inkscape:snap-page="true"
     inkscape:bbox-nodes="true"
     inkscape:snap-bbox-edge-midpoints="true"
     inkscape:window-width="1920"
     inkscape:window-height="1016"
     inkscape:window-x="0"
     inkscape:window-y="27"
     inkscape:window-maximized="1"
     inkscape:lockguides="false"
     inkscape:pagecheckerboard="true"
     borderlayer="true" />
  <metadata
     id="metadata5">
    <rdf:RDF>
      <cc:Work
         rdf:about="">
        <dc:format>image/svg+xml</dc:format>
        <dc:type
           rdf:resource="http://purl.org/dc/dcmitype/StillImage" />
        <dc:title></dc:title>
      </cc:Work>
    </rdf:RDF>
  </metadata>
  <g
     inkscape:label="bg"
     inkscape:groupmode="layer"
     id="layer1"
     transform="translate(0,-196.45832)">
    <path
       style="opacity:1;vector-effect:none;fill:#f0f0f0;fill-opacity:1;fill-rule:evenodd;stroke:none;stroke-width:0.48607069;stroke-linecap:butt;stroke-linejoin:round;stroke-miterlimit:4;stroke-dasharray:none;stroke-dashoffset:0;stroke-opacity:1;paint-order:normal"
       d="M 0,196.45831 H 158.75001 V 296.99999 H 0 Z"
       id="rect817"
       inkscape:connector-curvature="0" />
    <g
       transform="matrix(0.26458335,0,0,0.26458335,-4.4979169,196.45831)"
       style="isolation:isolate;opacity:1;stroke:url(#linearGradient6836);stroke-width:1.00157474;stroke-miterlimit:4;stroke-dasharray:12.01889688,1.00157474;stroke-dashoffset:0"
       id="Logo">
      <clipPath
         id="clipPath6488"
         style="stroke:url(#linearGradient6836)">
        <path
           d="m 188.5,0 h 257 v 60 h -257 z"
           id="path6486"
           inkscape:connector-curvature="0"
           style="fill:#ffffff;stroke:url(#linearGradient6836)" />
      </clipPath>
      <g
         clip-path="url(#_clipPath_5pp32NuXIIutEw6PWFHnNkTIRZzkB8Bp)"
         id="g948"
         style="stroke:url(#linearGradient6836);stroke-width:1.00157474;stroke-miterlimit:4;stroke-dasharray:12.01889688,1.00157474;stroke-dashoffset:0">
        <g
           id="g946"
           style="stroke:url(#linearGradient6836);stroke-width:1.00157474;stroke-miterlimit:4;stroke-dasharray:12.01889688,1.00157474;stroke-dashoffset:0">
          <path
             d="m 5.5,-149 h 634 V 207.625 H 5.5 Z"
             id="path915"
             inkscape:connector-curvature="0"
             style="fill:none;fill-rule:evenodd;stroke:url(#linearGradient6836);stroke-width:1.00157474;stroke-miterlimit:4;stroke-dasharray:12.01889688,1.00157474;stroke-dashoffset:0" />
          <g
             id="Group"
             style="filter:url(#af9soRcblEbnDflHwfqAMgo5RvCfBtve);stroke:url(#linearGradient6836);stroke-width:1.00157474;stroke-miterlimit:4;stroke-dasharray:12.01889688,1.00157474;stroke-dashoffset:0">
            <g
               id="g335509b881_0_5.1"
               style="stroke:url(#linearGradient6836);stroke-width:1.00157474;stroke-miterlimit:4;stroke-dasharray:12.01889688,1.00157474;stroke-dashoffset:0">
              <path
                 d="M 27.112,-40.525 H 617.889 V 101.792 H 27.112 Z"
                 id="path917"
                 inkscape:connector-curvature="0"
                 style="fill:none;fill-rule:evenodd;stroke:url(#linearGradient6836);stroke-width:1.00157474;stroke-miterlimit:4;stroke-dasharray:12.01889688,1.00157474;stroke-dashoffset:0" />
              <path
                 d="m 245.463,42.151 h -8.916 L 222.204,13.794 h 8.544 l 10.319,21.34 10.298,-21.34 h 8.545 z m 53.824,-14.199 q 0,2.724 -0.599,4.84 -0.598,2.115 -1.682,3.684 -1.083,1.568 -2.6,2.662 -1.517,1.094 -3.374,1.754 -1.858,0.66 -4.004,0.96 -2.146,0.299 -4.479,0.299 H 264.553 V 13.794 h 17.955 q 2.332,0 4.479,0.3 2.146,0.299 4.014,0.959 1.867,0.661 3.395,1.744 1.527,1.084 2.61,2.662 1.084,1.579 1.682,3.684 0.599,2.105 0.599,4.809 z m -7.719,0 q 0,-2.043 -0.526,-3.55 -0.526,-1.506 -1.692,-2.487 -1.166,-0.98 -3.044,-1.465 -1.878,-0.485 -4.582,-0.485 H 272.21 V 35.98 h 9.514 q 2.704,0 4.582,-0.485 1.878,-0.485 3.044,-1.486 1.166,-1.001 1.692,-2.507 0.526,-1.507 0.526,-3.55 z"
                 id="path919"
                 inkscape:connector-curvature="0"
                 style="fill:#0097a7;stroke:url(#linearGradient6836);stroke-width:1.00157474;stroke-miterlimit:4;stroke-dasharray:12.01889688,1.00157474;stroke-dashoffset:0" />
              <path
                 d="m 309.885,29.644 q -1.755,0 -2.983,-1.228 -1.228,-1.238 -1.228,-2.992 0,-1.754 1.218,-3.003 1.228,-1.259 2.993,-1.259 1.754,0 3.002,1.259 1.259,1.249 1.259,3.003 0,1.764 -1.259,2.992 -1.248,1.228 -3.002,1.228 z m -2.106,10.144 q -1.764,0 -2.992,-1.228 -1.228,-1.238 -1.228,-2.993 0,-1.754 1.218,-3.002 1.228,-1.259 3.002,-1.259 1.755,0 3.003,1.259 1.249,1.248 1.249,3.002 0,1.765 -1.249,2.993 -1.248,1.228 -3.003,1.228 z"
                 id="path921"
                 inkscape:connector-curvature="0"
                 style="fill:#ff9900;stroke:url(#linearGradient6836);stroke-width:1.00157474;stroke-miterlimit:4;stroke-dasharray:12.01889688,1.00157474;stroke-dashoffset:0" />
              <path
                 d="m 321.17,29.644 q -1.755,0 -2.982,-1.228 -1.228,-1.238 -1.228,-2.992 0,-1.754 1.217,-3.003 1.228,-1.259 2.993,-1.259 1.754,0 3.003,1.259 1.258,1.249 1.258,3.003 0,1.764 -1.258,2.992 -1.249,1.228 -3.003,1.228 z m -2.105,10.144 q -1.765,0 -2.993,-1.228 -1.228,-1.238 -1.228,-2.993 0,-1.754 1.218,-3.002 1.228,-1.259 3.003,-1.259 1.754,0 3.002,1.259 1.249,1.248 1.249,3.002 0,1.765 -1.249,2.993 -1.248,1.228 -3.002,1.228 z"
                 id="path923"
                 inkscape:connector-curvature="0"
                 style="fill:#0097a7;stroke:url(#linearGradient6836);stroke-width:1.00157474;stroke-miterlimit:4;stroke-dasharray:12.01889688,1.00157474;stroke-dashoffset:0" />
              <path
                 d="m 335.633,42.915 q -2.869,0 -5.097,-1.022 -2.229,-1.022 -3.468,-2.91 -1.238,-1.888 -1.238,-4.344 0,-2.074 0.887,-3.787 0.888,-1.724 2.415,-2.745 1.538,-1.022 3.416,-1.022 1.764,0 3.023,0.929 1.269,0.918 1.796,3.612 -2.931,0 -3.973,0.918 -1.032,0.918 -1.032,2.518 0,1.455 0.836,2.301 0.846,0.836 2.301,0.836 1.868,0 3.075,-1.238 1.207,-1.249 1.207,-3.168 0,-1.744 -1.021,-3.375 -1.011,-1.64 -3.158,-4.117 -2.332,-2.673 -3.581,-4.695 -1.248,-2.023 -1.248,-4.51 0,-2.476 1.372,-4.437 1.373,-1.96 3.725,-3.064 2.353,-1.105 5.253,-1.105 3.725,0 6.057,1.837 2.343,1.827 2.343,4.953 0,2.085 -1.115,3.467 -1.114,1.383 -2.972,1.383 -2.053,0 -3.808,-2.373 1.332,-0.98 1.703,-1.765 0.382,-0.784 0.382,-1.64 0,-0.991 -0.547,-1.538 -0.547,-0.547 -1.579,-0.547 -1.3,0 -2.136,0.939 -0.836,0.929 -0.836,2.456 0,1.424 0.877,2.745 0.888,1.321 2.91,3.55 1.713,1.847 2.797,3.219 1.083,1.362 1.878,3.209 0.794,1.837 0.794,4.015 0,2.971 -1.64,5.376 -1.631,2.404 -4.427,3.776 -2.797,1.363 -6.171,1.363 z m 20.326,9.803 q -2.332,0 -3.973,-1.29 -1.641,-1.28 -1.641,-3.684 0,-2.858 2.177,-4.489 2.178,-1.62 4.85,-2.497 l 0.382,0.082 q 0.155,0.413 -1.29,0.991 -1.444,0.578 -2.91,0.578 -2.404,0 -3.911,-1.527 -1.496,-1.527 -1.496,-4.427 0,-1.135 0.361,-2.92 l 3.024,-14.272 h 7.873 l -3.271,15.448 q -0.103,0.413 -0.103,0.856 0,0.981 0.392,0.981 0.712,0 1.362,-0.733 0.65,-0.733 1.094,-2.084 l 3.085,-14.468 h 7.884 l -4.086,19.173 q 0.351,-0.124 1.434,-1.31 1.094,-1.197 2.074,-4.293 h 3.601 q -1.568,5.118 -3.683,7.027 -2.105,1.909 -4.242,2.466 l -0.526,2.508 q -0.908,4.427 -3.23,6.15 -2.321,1.734 -5.231,1.734 z m -0.97,-5.046 q 0.247,0 0.743,-0.712 0.495,-0.712 0.846,-2.353 l 0.175,0.041 q -2.322,1.042 -2.322,2.497 0,0.227 0.135,0.372 0.134,0.155 0.423,0.155 z m 30.179,-5.263 q -2.982,0 -4.427,-1.651 -1.444,-1.651 -1.444,-4.004 0,-0.97 0.216,-2.136 0.227,-1.166 0.465,-2.249 0.237,-1.084 0.33,-1.383 0.32,-1.435 0.609,-2.828 0.289,-1.393 0.289,-2.187 0,-1.28 -0.65,-1.28 -0.671,0 -1.332,0.846 -0.66,0.847 -1.114,2.384 l -3.013,14.23 h -7.884 l 4.86,-22.888 h 7.874 l -0.496,1.001 q 0.671,-1.166 3.901,-1.166 2.487,0 4.024,1.435 1.538,1.424 1.538,4.21 0,1.31 -0.31,2.869 -0.299,1.558 -0.856,3.735 -0.33,1.3 -0.599,2.497 -0.258,1.187 -0.258,1.806 0,0.537 0.145,0.722 0.155,0.176 0.66,0.176 0.857,0 1.445,-0.692 0.588,-0.701 1.507,-3.023 h 3.601 q -2.043,6.047 -4.313,7.811 -2.271,1.765 -4.768,1.765 z m 10.272,0 q -2.404,0 -3.91,-1.527 -1.497,-1.527 -1.497,-4.427 0,-1.135 0.361,-2.92 l 2.312,-10.825 h -1.372 l 0.67,-3.447 h 1.414 l 1.249,-5.737 8.11,-1.094 -1.486,6.831 h 2.529 l -0.692,3.447 h -2.538 l -2.57,12.011 q -0.144,0.537 -0.144,1.146 0,0.454 0.124,0.567 0.134,0.114 0.732,0.114 0.867,0 1.713,-0.826 0.846,-0.825 1.435,-2.889 h 3.663 q -2.064,6.006 -4.747,7.791 -2.683,1.785 -5.356,1.785 z m 22.358,0 q -2.982,0 -4.427,-1.651 -1.445,-1.651 -1.445,-4.004 0,-0.97 0.217,-2.136 0.227,-1.166 0.464,-2.249 0.238,-1.084 0.331,-1.383 0.32,-1.435 0.609,-2.828 0.288,-1.393 0.288,-2.187 0,-1.28 -0.65,-1.28 -0.67,0 -1.331,0.846 -0.66,0.847 -1.114,2.384 l -3.013,14.23 h -7.884 l 6.48,-30.4 8.101,-1.094 -1.909,8.761 q 0.237,-0.32 3.467,-0.32 2.487,0 4.024,1.435 1.538,1.424 1.538,4.21 0,1.31 -0.31,2.869 -0.299,1.558 -0.856,3.735 -0.331,1.3 -0.599,2.497 -0.258,1.187 -0.258,1.806 0,0.537 0.145,0.722 0.154,0.176 0.66,0.176 0.857,0 1.445,-0.692 0.588,-0.701 1.506,-3.023 h 3.602 q -2.043,6.047 -4.314,7.811 -2.27,1.765 -4.767,1.765 z"
                 id="path925"
                 inkscape:connector-curvature="0"
                 style="fill:#ff9900;stroke:url(#linearGradient6836);stroke-width:1.00157474;stroke-miterlimit:4;stroke-dasharray:12.01889688,1.00157474;stroke-dashoffset:0" />
            </g>
          </g>
          <defs
             id="defs932"
             style="stroke:url(#linearGradient6836)">
            <filter
               id="filter6560"
               x="-2"
               y="-2"
               width="4"
               height="4"
               style="stroke:url(#linearGradient6836)">
              <feGaussianBlur
                 stdDeviation="2"
                 id="feGaussianBlur6558"
                 style="stroke:url(#linearGradient6836)" />
            </filter>
          </defs>
          <g
             id="g944"
             style="stroke:url(#linearGradient6836);stroke-width:1.00157474;stroke-miterlimit:4;stroke-dasharray:12.01889688,1.00157474;stroke-dashoffset:0">
            <path
               d="M 27.112,-40.525 H 617.889 V 101.792 H 27.112 Z"
               id="path934"
               inkscape:connector-curvature="0"
               style="fill:none;fill-rule:evenodd;stroke:url(#linearGradient6836);stroke-width:1.00157474;stroke-miterlimit:4;stroke-dasharray:12.01889688,1.00157474;stroke-dashoffset:0" />
            <path
               d="m 245.463,42.151 h -8.916 L 222.204,13.794 h 8.544 l 10.319,21.34 10.298,-21.34 h 8.545 z m 53.824,-14.199 q 0,2.724 -0.599,4.84 -0.598,2.115 -1.682,3.684 -1.083,1.568 -2.6,2.662 -1.517,1.094 -3.374,1.754 -1.858,0.66 -4.004,0.96 -2.146,0.299 -4.479,0.299 H 264.553 V 13.794 h 17.955 q 2.332,0 4.479,0.3 2.146,0.299 4.014,0.959 1.867,0.661 3.395,1.744 1.527,1.084 2.61,2.662 1.084,1.579 1.682,3.684 0.599,2.105 0.599,4.809 z m -7.719,0 q 0,-2.043 -0.526,-3.55 -0.526,-1.506 -1.692,-2.487 -1.166,-0.98 -3.044,-1.465 -1.878,-0.485 -4.582,-0.485 H 272.21 V 35.98 h 9.514 q 2.704,0 4.582,-0.485 1.878,-0.485 3.044,-1.486 1.166,-1.001 1.692,-2.507 0.526,-1.507 0.526,-3.55 z"
               id="path936"
               inkscape:connector-curvature="0"
               style="fill:#0097a7;stroke:url(#linearGradient6836);stroke-width:1.00157474;stroke-miterlimit:4;stroke-dasharray:12.01889688,1.00157474;stroke-dashoffset:0" />
            <path
               d="m 309.885,29.644 q -1.755,0 -2.983,-1.228 -1.228,-1.238 -1.228,-2.992 0,-1.754 1.218,-3.003 1.228,-1.259 2.993,-1.259 1.754,0 3.002,1.259 1.259,1.249 1.259,3.003 0,1.764 -1.259,2.992 -1.248,1.228 -3.002,1.228 z m -2.106,10.144 q -1.764,0 -2.992,-1.228 -1.228,-1.238 -1.228,-2.993 0,-1.754 1.218,-3.002 1.228,-1.259 3.002,-1.259 1.755,0 3.003,1.259 1.249,1.248 1.249,3.002 0,1.765 -1.249,2.993 -1.248,1.228 -3.003,1.228 z"
               id="path938"
               inkscape:connector-curvature="0"
               style="fill:#ff9900;stroke:url(#linearGradient6836);stroke-width:1.00157474;stroke-miterlimit:4;stroke-dasharray:12.01889688,1.00157474;stroke-dashoffset:0" />
            <path
               d="m 321.17,29.644 q -1.755,0 -2.982,-1.228 -1.228,-1.238 -1.228,-2.992 0,-1.754 1.217,-3.003 1.228,-1.259 2.993,-1.259 1.754,0 3.003,1.259 1.258,1.249 1.258,3.003 0,1.764 -1.258,2.992 -1.249,1.228 -3.003,1.228 z m -2.105,10.144 q -1.765,0 -2.993,-1.228 -1.228,-1.238 -1.228,-2.993 0,-1.754 1.218,-3.002 1.228,-1.259 3.003,-1.259 1.754,0 3.002,1.259 1.249,1.248 1.249,3.002 0,1.765 -1.249,2.993 -1.248,1.228 -3.002,1.228 z"
               id="path940"
               inkscape:connector-curvature="0"
               style="fill:#0097a7;stroke:url(#linearGradient6836);stroke-width:1.00157474;stroke-miterlimit:4;stroke-dasharray:12.01889688,1.00157474;stroke-dashoffset:0" />
            <path
               d="m 335.633,42.915 q -2.869,0 -5.097,-1.022 -2.229,-1.022 -3.468,-2.91 -1.238,-1.888 -1.238,-4.344 0,-2.074 0.887,-3.787 0.888,-1.724 2.415,-2.745 1.538,-1.022 3.416,-1.022 1.764,0 3.023,0.929 1.269,0.918 1.796,3.612 -2.931,0 -3.973,0.918 -1.032,0.918 -1.032,2.518 0,1.455 0.836,2.301 0.846,0.836 2.301,0.836 1.868,0 3.075,-1.238 1.207,-1.249 1.207,-3.168 0,-1.744 -1.021,-3.375 -1.011,-1.64 -3.158,-4.117 -2.332,-2.673 -3.581,-4.695 -1.248,-2.023 -1.248,-4.51 0,-2.476 1.372,-4.437 1.373,-1.96 3.725,-3.064 2.353,-1.105 5.253,-1.105 3.725,0 6.057,1.837 2.343,1.827 2.343,4.953 0,2.085 -1.115,3.467 -1.114,1.383 -2.972,1.383 -2.053,0 -3.808,-2.373 1.332,-0.98 1.703,-1.765 0.382,-0.784 0.382,-1.64 0,-0.991 -0.547,-1.538 -0.547,-0.547 -1.579,-0.547 -1.3,0 -2.136,0.939 -0.836,0.929 -0.836,2.456 0,1.424 0.877,2.745 0.888,1.321 2.91,3.55 1.713,1.847 2.797,3.219 1.083,1.362 1.878,3.209 0.794,1.837 0.794,4.015 0,2.971 -1.64,5.376 -1.631,2.404 -4.427,3.776 -2.797,1.363 -6.171,1.363 z m 20.326,9.803 q -2.332,0 -3.973,-1.29 -1.641,-1.28 -1.641,-3.684 0,-2.858 2.177,-4.489 2.178,-1.62 4.85,-2.497 l 0.382,0.082 q 0.155,0.413 -1.29,0.991 -1.444,0.578 -2.91,0.578 -2.404,0 -3.911,-1.527 -1.496,-1.527 -1.496,-4.427 0,-1.135 0.361,-2.92 l 3.024,-14.272 h 7.873 l -3.271,15.448 q -0.103,0.413 -0.103,0.856 0,0.981 0.392,0.981 0.712,0 1.362,-0.733 0.65,-0.733 1.094,-2.084 l 3.085,-14.468 h 7.884 l -4.086,19.173 q 0.351,-0.124 1.434,-1.31 1.094,-1.197 2.074,-4.293 h 3.601 q -1.568,5.118 -3.683,7.027 -2.105,1.909 -4.242,2.466 l -0.526,2.508 q -0.908,4.427 -3.23,6.15 -2.321,1.734 -5.231,1.734 z m -0.97,-5.046 q 0.247,0 0.743,-0.712 0.495,-0.712 0.846,-2.353 l 0.175,0.041 q -2.322,1.042 -2.322,2.497 0,0.227 0.135,0.372 0.134,0.155 0.423,0.155 z m 30.179,-5.263 q -2.982,0 -4.427,-1.651 -1.444,-1.651 -1.444,-4.004 0,-0.97 0.216,-2.136 0.227,-1.166 0.465,-2.249 0.237,-1.084 0.33,-1.383 0.32,-1.435 0.609,-2.828 0.289,-1.393 0.289,-2.187 0,-1.28 -0.65,-1.28 -0.671,0 -1.332,0.846 -0.66,0.847 -1.114,2.384 l -3.013,14.23 h -7.884 l 4.86,-22.888 h 7.874 l -0.496,1.001 q 0.671,-1.166 3.901,-1.166 2.487,0 4.024,1.435 1.538,1.424 1.538,4.21 0,1.31 -0.31,2.869 -0.299,1.558 -0.856,3.735 -0.33,1.3 -0.599,2.497 -0.258,1.187 -0.258,1.806 0,0.537 0.145,0.722 0.155,0.176 0.66,0.176 0.857,0 1.445,-0.692 0.588,-0.701 1.507,-3.023 h 3.601 q -2.043,6.047 -4.313,7.811 -2.271,1.765 -4.768,1.765 z m 10.272,0 q -2.404,0 -3.91,-1.527 -1.497,-1.527 -1.497,-4.427 0,-1.135 0.361,-2.92 l 2.312,-10.825 h -1.372 l 0.67,-3.447 h 1.414 l 1.249,-5.737 8.11,-1.094 -1.486,6.831 h 2.529 l -0.692,3.447 h -2.538 l -2.57,12.011 q -0.144,0.537 -0.144,1.146 0,0.454 0.124,0.567 0.134,0.114 0.732,0.114 0.867,0 1.713,-0.826 0.846,-0.825 1.435,-2.889 h 3.663 q -2.064,6.006 -4.747,7.791 -2.683,1.785 -5.356,1.785 z m 22.358,0 q -2.982,0 -4.427,-1.651 -1.445,-1.651 -1.445,-4.004 0,-0.97 0.217,-2.136 0.227,-1.166 0.464,-2.249 0.238,-1.084 0.331,-1.383 0.32,-1.435 0.609,-2.828 0.288,-1.393 0.288,-2.187 0,-1.28 -0.65,-1.28 -0.67,0 -1.331,0.846 -0.66,0.847 -1.114,2.384 l -3.013,14.23 h -7.884 l 6.48,-30.4 8.101,-1.094 -1.909,8.761 q 0.237,-0.32 3.467,-0.32 2.487,0 4.024,1.435 1.538,1.424 1.538,4.21 0,1.31 -0.31,2.869 -0.299,1.558 -0.856,3.735 -0.331,1.3 -0.599,2.497 -0.258,1.187 -0.258,1.806 0,0.537 0.145,0.722 0.154,0.176 0.66,0.176 0.857,0 1.445,-0.692 0.588,-0.701 1.506,-3.023 h 3.602 q -2.043,6.047 -4.314,7.811 -2.27,1.765 -4.767,1.765 z"
               id="path942"
               inkscape:connector-curvature="0"
               style="fill:#ff9900;stroke:url(#linearGradient6836);stroke-width:1.00157474;stroke-miterlimit:4;stroke-dasharray:12.01889688,1.00157474;stroke-dashoffset:0" />
          </g>
        </g>
      </g>
    </g>
  </g>
</svg>
