<?xml version="1.0" encoding="UTF-8" standalone="no"?>
<!-- Created with Inkscape (http://www.inkscape.org/) -->

<svg
   xmlns:osb="http://www.openswatchbook.org/uri/2009/osb"
   xmlns:dc="http://purl.org/dc/elements/1.1/"
   xmlns:cc="http://creativecommons.org/ns#"
   xmlns:rdf="http://www.w3.org/1999/02/22-rdf-syntax-ns#"
   xmlns:svg="http://www.w3.org/2000/svg"
   xmlns="http://www.w3.org/2000/svg"
   xmlns:xlink="http://www.w3.org/1999/xlink"
   xmlns:sodipodi="http://sodipodi.sourceforge.net/DTD/sodipodi-0.dtd"
   xmlns:inkscape="http://www.inkscape.org/namespaces/inkscape"
   width="210mm"
   height="297mm"
   viewBox="0 0 210 297"
   version="1.1"
   id="svg1052"
   inkscape:version="0.92.2 (5c3e80d, 2017-08-06)"
   sodipodi:docname="logo.svg">
  <defs
     id="defs1046">
    <linearGradient
       gradientTransform="matrix(0.26458333,0,0,0.26458333,-1.9047619e-6,-9.5238107e-8)"
       inkscape:collect="always"
       xlink:href="#linearGradient960"
       id="linearGradient910"
       x1="357.83218"
       y1="265.97125"
       x2="414.92593"
       y2="265.97125"
       gradientUnits="userSpaceOnUse" />
    <linearGradient
       id="linearGradient960"
       osb:paint="solid">
      <stop
         style="stop-color:#000000;stop-opacity:1;"
         offset="0"
         id="stop958" />
    </linearGradient>
    <linearGradient
       gradientTransform="matrix(0.26458333,0,0,0.26458333,-1.9047619e-6,-9.5238107e-8)"
       inkscape:collect="always"
       xlink:href="#linearGradient960"
       id="linearGradient900"
       x1="417.41031"
       y1="269.95563"
       x2="570.41772"
       y2="269.95563"
       gradientUnits="userSpaceOnUse" />
    <linearGradient
       gradientTransform="matrix(0.26458333,0,0,0.26458333,-1.9066667e-6,-9.5238107e-8)"
       inkscape:collect="always"
       xlink:href="#linearGradient960"
       id="linearGradient962-6"
       x1="377.37497"
       y1="304.65262"
       x2="393.40622"
       y2="304.65262"
       gradientUnits="userSpaceOnUse" />
    <linearGradient
       gradientTransform="matrix(0.26458333,0,0,0.26458333,-1.9033333e-6,-9.3333303e-8)"
       inkscape:collect="always"
       xlink:href="#linearGradient960"
       id="linearGradient956"
       x1="382.28049"
       y1="231.14088"
       x2="398.31174"
       y2="231.14088"
       gradientUnits="userSpaceOnUse" />
  </defs>
  <sodipodi:namedview
     id="base"
     pagecolor="#ffffff"
     bordercolor="#666666"
     borderopacity="1.0"
     inkscape:pageopacity="0.0"
     inkscape:pageshadow="2"
     inkscape:zoom="1.979899"
     inkscape:cx="285.00535"
     inkscape:cy="812.0118"
     inkscape:document-units="mm"
     inkscape:current-layer="layer1"
     showgrid="false"
     inkscape:window-width="1920"
     inkscape:window-height="1016"
     inkscape:window-x="0"
     inkscape:window-y="27"
     inkscape:window-maximized="1" />
  <metadata
     id="metadata1049">
    <rdf:RDF>
      <cc:Work
         rdf:about="">
        <dc:format>image/svg+xml</dc:format>
        <dc:type
           rdf:resource="http://purl.org/dc/dcmitype/StillImage" />
        <dc:title></dc:title>
      </cc:Work>
    </rdf:RDF>
  </metadata>
  <g
     inkscape:label="Layer 1"
     inkscape:groupmode="layer"
     id="layer1">
    <path
       inkscape:connector-curvature="0"
       d="m 81.752078,95.039867 h -3.57188 L 72.433778,83.67932 h 3.42305 l 4.13412,8.549349 4.12584,-8.549349 h 3.42305 z"
       id="path28"
       style="fill:#0097a7;fill-rule:nonzero;stroke:url(#linearGradient910);stroke-width:0.26458332"
       inkscape:export-xdpi="97.75"
       inkscape:export-ydpi="97.75" />
    <path
       inkscape:connector-curvature="0"
       d="m 92.124568,95.345792 q -1.14928,0 -2.04225,-0.409279 -0.89297,-0.409276 -1.38906,-1.16582 -0.4961,-0.756542 -0.4961,-1.740461 0,-0.830959 0.35554,-1.517222 0.35553,-0.690395 0.96738,-1.099674 0.61598,-0.409276 1.36839,-0.409276 0.70694,0 1.2113,0.37207 0.50849,0.367935 0.71933,1.44694 -1.17408,0 -1.59163,0.367935 -0.41341,0.367938 -0.41341,1.008724 0,0.582912 0.33486,0.921909 0.339,0.334862 0.92191,0.334862 0.74827,0 1.23196,-0.496094 0.4837,-0.500226 0.4837,-1.269172 0,-0.698666 -0.40928,-1.351856 -0.40514,-0.657323 -1.26504,-1.649511 -0.93431,-1.070737 -1.43454,-1.881023 -0.50023,-0.810287 -0.50023,-1.806607 0,-0.992188 0.54984,-1.777669 0.54984,-0.785482 1.49242,-1.227834 0.94257,-0.442349 2.10426,-0.442349 1.49242,0 2.42673,0.735873 0.93844,0.731737 0.93844,1.984375 0,0.835091 -0.44648,1.389062 -0.44649,0.553972 -1.19063,0.553972 -0.82269,0 -1.52549,-0.950847 0.5333,-0.392742 0.68213,-0.706935 0.15296,-0.314192 0.15296,-0.657323 0,-0.396875 -0.2191,-0.615984 -0.21911,-0.219107 -0.63252,-0.219107 -0.5209,0 -0.85576,0.376203 -0.33487,0.372071 -0.33487,0.98392 0,0.570507 0.3514,1.099674 0.35554,0.529167 1.16582,1.422136 0.68627,0.740008 1.12035,1.289843 0.43408,0.545704 0.75241,1.285711 0.31832,0.735873 0.31832,1.60817 0,1.190625 -0.65732,2.153875 -0.65319,0.963247 -1.77354,1.513086 -1.12034,0.545703 -2.4722,0.545703 z m 8.143042,3.927409 q -0.934312,0 -1.591642,-0.516766 -0.65732,-0.51263 -0.65732,-1.475878 0,-1.145151 0.8723,-1.798341 0.8723,-0.649054 1.943032,-1.000456 l 0.15296,0.03307 q 0.062,0.165365 -0.51676,0.396875 -0.578782,0.231511 -1.165822,0.231511 -0.96325,0 -1.56683,-0.611849 -0.59945,-0.611849 -0.59945,-1.773534 0,-0.454753 0.1447,-1.169956 l 1.21129,-5.717479 h 3.154332 l -1.31051,6.188771 q -0.0413,0.165365 -0.0413,0.343133 0,0.39274 0.1571,0.39274 0.28525,0 0.5457,-0.293521 0.26045,-0.293524 0.43821,-0.835091 l 1.2361,-5.796029 h 3.15847 l -1.63711,7.681185 q 0.14056,-0.04961 0.57464,-0.525034 0.43822,-0.479557 0.83096,-1.719792 h 1.4428 q -0.62838,2.050521 -1.47588,2.815334 -0.84336,0.76481 -1.69912,0.988052 l -0.21084,1.004591 q -0.3638,1.773534 -1.29397,2.463932 -0.93018,0.694532 -2.096,0.694532 z m -0.388612,-2.021584 q 0.0992,0 0.297662,-0.285252 0.19843,-0.285256 0.33899,-0.942578 l 0.0703,0.01654 q -0.930172,0.417544 -0.930172,1.000456 0,0.09095 0.0538,0.148828 0.0537,0.06201 0.16949,0.06201 z m 12.090852,-2.108398 q -1.19476,0 -1.77354,-0.661459 -0.57877,-0.661458 -0.57877,-1.604036 0,-0.388607 0.0868,-0.85576 0.091,-0.467157 0.18603,-0.901237 0.0951,-0.434084 0.13229,-0.553972 0.12816,-0.574643 0.24392,-1.132747 0.11575,-0.558107 0.11575,-0.876432 0,-0.512631 -0.26045,-0.512631 -0.26871,0 -0.5333,0.338998 -0.26458,0.338997 -0.44648,0.954979 l -1.20716,5.700945 h -3.15847 l 1.94717,-9.169466 h 3.15433 l -0.19844,0.401008 q 0.26872,-0.467154 1.5627,-0.467154 0.99632,0 1.6123,0.574641 0.61599,0.570508 0.61599,1.686719 0,0.525033 -0.12403,1.149283 -0.11989,0.624253 -0.34313,1.49655 -0.13229,0.520898 -0.23978,1.000456 -0.10335,0.475424 -0.10335,0.723471 0,0.214974 0.0579,0.289388 0.062,0.07028 0.26458,0.07028 0.34313,0 0.57878,-0.276985 0.23564,-0.281119 0.60358,-1.211297 h 1.44281 q -0.81856,2.422592 -1.72806,3.129527 -0.90951,0.706932 -1.90997,0.706932 z m 4.11541,0 q -0.96325,0 -1.56683,-0.611849 -0.59944,-0.611849 -0.59944,-1.773534 0,-0.454753 0.14469,-1.169956 l 0.92604,-4.336685 h -0.54983 l 0.26871,-1.380794 h 0.56638 l 0.50022,-2.298568 3.24942,-0.438216 -0.59531,2.736784 h 1.01286 l -0.27699,1.380794 h -1.01699 l -1.0294,4.81211 q -0.0579,0.214974 -0.0579,0.458885 0,0.181901 0.0496,0.227378 0.0537,0.04547 0.29352,0.04547 0.34727,0 0.68627,-0.330729 0.33899,-0.33073 0.57464,-1.157553 h 1.46761 q -0.82682,2.406055 -1.90169,3.121258 -1.07487,0.715201 -2.14561,0.715201 z m 8.9571,0 q -1.19476,0 -1.77354,-0.661459 -0.57877,-0.661458 -0.57877,-1.604036 0,-0.388607 0.0868,-0.85576 0.0909,-0.467157 0.18603,-0.901237 0.0951,-0.434084 0.13229,-0.553972 0.12816,-0.574643 0.24391,-1.132747 0.11576,-0.558107 0.11576,-0.876432 0,-0.512631 -0.26045,-0.512631 -0.26872,0 -0.5333,0.338998 -0.26458,0.338997 -0.44648,0.954979 l -1.20717,5.700945 h -3.15846 l 2.59622,-12.179101 3.24528,-0.438217 -0.76481,3.509862 q 0.0951,-0.128156 1.38907,-0.128156 0.99632,0 1.6123,0.574641 0.61598,0.570508 0.61598,1.686719 0,0.525033 -0.12402,1.149283 -0.11989,0.624253 -0.34313,1.49655 -0.13229,0.520898 -0.23978,1.000456 -0.10335,0.475424 -0.10335,0.723471 0,0.214974 0.0579,0.289388 0.062,0.07028 0.26458,0.07028 0.34313,0 0.57877,-0.276985 0.23565,-0.281119 0.60359,-1.211297 h 1.4428 q -0.81855,2.422592 -1.72806,3.129527 -0.9095,0.706932 -1.90996,0.706932 z"
       id="path30"
       style="fill:#ff9900;fill-rule:nonzero;stroke:url(#linearGradient900);stroke-width:0.26458332"
       inkscape:export-xdpi="97.75"
       inkscape:export-ydpi="97.75" />
    <path
       inkscape:connector-curvature="0"
       d="m 79.609521,99.261241 q -0.70279,0 -1.19476,-0.491961 -0.49195,-0.496093 -0.49195,-1.198893 0,-0.702799 0.48782,-1.203026 0.49196,-0.504362 1.19889,-0.504362 0.7028,0 1.20303,0.504362 0.50436,0.500227 0.50436,1.203026 0,0.706935 -0.50436,1.198893 -0.50023,0.491961 -1.20303,0.491961 z m -0.84335,4.063829 q -0.70694,0 -1.1989,-0.49195 -0.49196,-0.4961 -0.49196,-1.1989 0,-0.7028 0.48783,-1.20303 0.49196,-0.504357 1.20303,-0.504357 0.70279,0 1.20302,0.504357 0.50023,0.50023 0.50023,1.20303 0,0.70693 -0.50023,1.1989 -0.50023,0.49195 -1.20302,0.49195 z"
       id="path54"
       style="fill:#0097a7;fill-rule:nonzero;stroke:url(#linearGradient962-6);stroke-width:0.26458332"
       inkscape:export-xdpi="97.75"
       inkscape:export-ydpi="97.75" />
    <path
       inkscape:connector-curvature="0"
       d="m 81.436608,79.811263 q -0.7028,0 -1.19476,-0.491961 -0.49196,-0.496094 -0.49196,-1.198893 0,-0.7028 0.48782,-1.203027 0.49197,-0.504362 1.1989,-0.504362 0.7028,0 1.20303,0.504362 0.50436,0.500227 0.50436,1.203027 0,0.706934 -0.50436,1.198893 -0.50023,0.491961 -1.20303,0.491961 z m -0.84336,4.063833 q -0.70693,0 -1.19889,-0.491958 -0.49196,-0.496094 -0.49196,-1.198894 0,-0.702799 0.48782,-1.203028 0.49196,-0.504362 1.20303,-0.504362 0.7028,0 1.20303,0.504362 0.50022,0.500229 0.50022,1.203028 0,0.706933 -0.50022,1.198894 -0.50023,0.491958 -1.20303,0.491958 z"
       id="path78"
       style="fill:#ff9900;fill-rule:nonzero;stroke:url(#linearGradient956);stroke-width:0.26458332"
       inkscape:export-xdpi="97.75"
       inkscape:export-ydpi="97.75" />
  </g>
</svg>
