<?xml version="1.0" encoding="UTF-8" standalone="no"?>
<!-- Created with Inkscape (http://www.inkscape.org/) -->

<svg
   xmlns:osb="http://www.openswatchbook.org/uri/2009/osb"
   xmlns:dc="http://purl.org/dc/elements/1.1/"
   xmlns:cc="http://creativecommons.org/ns#"
   xmlns:rdf="http://www.w3.org/1999/02/22-rdf-syntax-ns#"
   xmlns:svg="http://www.w3.org/2000/svg"
   xmlns="http://www.w3.org/2000/svg"
   xmlns:xlink="http://www.w3.org/1999/xlink"
   xmlns:sodipodi="http://sodipodi.sourceforge.net/DTD/sodipodi-0.dtd"
   xmlns:inkscape="http://www.inkscape.org/namespaces/inkscape"
   width="600"
   height="380"
   viewBox="0 0 158.75001 100.54167"
   version="1.1"
   id="svg8"
   inkscape:version="0.92.2 (5c3e80d, 2017-08-06)"
   sodipodi:docname="plainviewer.svg">
  <defs
     id="defs2">
    <linearGradient
       id="linearGradient2325"
       osb:paint="solid">
      <stop
         style="stop-color:#7e0000;stop-opacity:1;"
         offset="0"
         id="stop2323" />
    </linearGradient>
    <linearGradient
       id="linearGradient2319"
       osb:paint="solid">
      <stop
         style="stop-color:#005bae;stop-opacity:1;"
         offset="0"
         id="stop2317" />
    </linearGradient>
    <linearGradient
       id="linearGradient6834"
       osb:paint="solid">
      <stop
         style="stop-color:#214040;stop-opacity:1;"
         offset="0"
         id="stop6832" />
    </linearGradient>
    <clipPath
       id="_clipPath_5pp32NuXIIutEw6PWFHnNkTIRZzkB8Bp">
      <path
         d="m 188.5,0 h 257 v 60 h -257 z"
         id="path912"
         inkscape:connector-curvature="0"
         style="fill:#ffffff" />
    </clipPath>
    <filter
       id="af9soRcblEbnDflHwfqAMgo5RvCfBtve"
       x="-2"
       y="-2"
       width="4"
       height="4">
      <feGaussianBlur
         stdDeviation="2"
         id="feGaussianBlur929" />
    </filter>
    <filter
       id="filter6500"
       x="-2"
       y="-2"
       width="4"
       height="4">
      <feGaussianBlur
         stdDeviation="2"
         id="feGaussianBlur6498" />
    </filter>
    <linearGradient
       inkscape:collect="always"
       xlink:href="#linearGradient2319"
       id="linearGradient2321"
       x1="146.98136"
       y1="76.887003"
       x2="158.807"
       y2="76.887003"
       gradientUnits="userSpaceOnUse"
       gradientTransform="translate(135.91731,6.141827)" />
    <linearGradient
       inkscape:collect="always"
       xlink:href="#linearGradient2319"
       id="linearGradient2327"
       x1="146.98135"
       y1="76.887001"
       x2="158.80701"
       y2="76.887001"
       gradientUnits="userSpaceOnUse"
       gradientTransform="translate(135.91731,6.141827)" />
    <linearGradient
       inkscape:collect="always"
       xlink:href="#linearGradient2319"
       id="linearGradient848"
       gradientUnits="userSpaceOnUse"
       x1="146.98136"
       y1="76.887003"
       x2="158.807"
       y2="76.887003"
       gradientTransform="translate(135.91731,6.141827)" />
    <linearGradient
       inkscape:collect="always"
       xlink:href="#linearGradient2319"
       id="linearGradient850"
       gradientUnits="userSpaceOnUse"
       x1="146.98135"
       y1="76.887001"
       x2="158.80701"
       y2="76.887001"
       gradientTransform="translate(135.91731,6.141827)" />
    <linearGradient
       inkscape:collect="always"
       xlink:href="#linearGradient2319"
       id="linearGradient852"
       gradientUnits="userSpaceOnUse"
       x1="146.98136"
       y1="76.887003"
       x2="158.807"
       y2="76.887003"
       gradientTransform="translate(135.91731,6.141827)" />
    <linearGradient
       inkscape:collect="always"
       xlink:href="#linearGradient2319"
       id="linearGradient854"
       gradientUnits="userSpaceOnUse"
       x1="146.98135"
       y1="76.887001"
       x2="158.80701"
       y2="76.887001"
       gradientTransform="translate(135.91731,6.141827)" />
    <linearGradient
       inkscape:collect="always"
       xlink:href="#linearGradient2319"
       id="linearGradient856"
       gradientUnits="userSpaceOnUse"
       x1="146.98136"
       y1="76.887003"
       x2="158.807"
       y2="76.887003"
       gradientTransform="translate(135.91731,6.141827)" />
    <linearGradient
       inkscape:collect="always"
       xlink:href="#linearGradient2319"
       id="linearGradient858"
       gradientUnits="userSpaceOnUse"
       x1="146.98135"
       y1="76.887001"
       x2="158.80701"
       y2="76.887001"
       gradientTransform="translate(135.91731,6.141827)" />
  </defs>
  <sodipodi:namedview
     id="base"
     pagecolor="#ffffff"
     bordercolor="#666666"
     borderopacity="1.0"
     inkscape:pageopacity="0.0"
     inkscape:pageshadow="2"
     inkscape:zoom="1.979899"
     inkscape:cx="307.96219"
     inkscape:cy="163.71444"
     inkscape:document-units="px"
     inkscape:current-layer="text987"
     showgrid="false"
     units="px"
     inkscape:snap-bbox="true"
     inkscape:snap-page="true"
     inkscape:bbox-nodes="true"
     inkscape:snap-bbox-edge-midpoints="true"
     inkscape:window-width="1920"
     inkscape:window-height="1016"
     inkscape:window-x="0"
     inkscape:window-y="27"
     inkscape:window-maximized="1"
     inkscape:lockguides="false"
     inkscape:pagecheckerboard="true"
     borderlayer="true"
     inkscape:measure-start="430,35"
     inkscape:measure-end="50,35"
     showguides="false" />
  <metadata
     id="metadata5">
    <rdf:RDF>
      <cc:Work
         rdf:about="">
        <dc:format>image/svg+xml</dc:format>
        <dc:type
           rdf:resource="http://purl.org/dc/dcmitype/StillImage" />
        <dc:title></dc:title>
      </cc:Work>
    </rdf:RDF>
  </metadata>
  <g
     inkscape:label="bg"
     inkscape:groupmode="layer"
     id="layer1"
     transform="translate(0,-196.45832)">
    <path
       style="opacity:1;vector-effect:none;fill:#ad6bc9;fill-opacity:0.98046875;fill-rule:evenodd;stroke:none;stroke-width:0.48607069;stroke-linecap:butt;stroke-linejoin:round;stroke-miterlimit:4;stroke-dasharray:none;stroke-dashoffset:0;stroke-opacity:1;paint-order:normal"
       d="M 0,196.45831 H 158.75001 V 296.99999 H 0 Z"
       id="rect817"
       inkscape:connector-curvature="0" />
    <path
       style="fill:#000000;stroke-width:1"
       d="m 5.0542038,215.57999 c -0.423788,-0.18781 -0.557972,-0.42338 -0.560752,-0.98442 -0.0026,-0.52773 0.391454,-0.98361 0.847284,-0.98018 0.449432,0.003 0.642341,0.1666 0.807174,0.68294 0.269018,0.84271 -0.37671,1.59939 -1.093706,1.28166 z m 0.08758,-2.60434 c -0.313691,-0.41282 -0.291293,-1.12196 0.04821,-1.52631 0.79405,-0.94569 1.939231,0.50887 1.183571,1.50333 -0.312285,0.41097 -0.92823,0.42246 -1.231781,0.023 z m 10.0743202,-0.0243 c -0.454273,-0.42694 -0.518067,-1.21273 -0.139737,-1.7212 0.196276,-0.26379 0.206617,-0.34439 0.0524,-0.40836 -0.362241,-0.15026 -0.716151,-0.70391 -0.716151,-1.12032 0,-0.3995 -0.02038,-0.38967 -0.498297,0.24035 -0.604214,0.79652 -1.240655,1.07099 -2.251834,0.97112 -0.624813,-0.0617 -0.84277,-0.17091 -1.207037,-0.60474 -0.382488,-0.45554 -0.444539,-0.64705 -0.444539,-1.37201 0,-0.74677 0.05358,-0.89957 0.471227,-1.34401 0.399506,-0.42513 0.548383,-0.48642 0.978157,-0.40263 0.278812,0.0543 0.592829,0.1114 0.697818,0.12678 0.267024,0.0391 0.716251,0.96835 0.716879,1.48289 5.82e-4,0.50874 -0.52535,1.15236 -0.941725,1.15236 -0.82559,0 -0.970412,-1.2328 -0.198735,-1.69173 l 0.46599,-0.27713 -0.291319,-0.34695 c -0.346198,-0.41231 -0.585233,-0.43267 -1.131314,-0.0964 -0.270856,0.16681 -0.459989,0.46162 -0.565672,0.88172 -0.4447052,1.76776 1.225436,2.94386 2.896942,2.04 0.683643,-0.36967 1.021089,-0.91339 1.121786,-1.80752 0.08852,-0.786 -0.15372,-1.3923 -1.093796,-2.73765 -0.929546,-1.33028 -0.914317,-2.28847 0.03637,-2.28847 0.487405,0 0.652037,0.52123 0.3424,1.08405 -0.206087,0.37459 -0.202733,0.41382 0.0491,0.57433 0.367211,0.23405 0.51026,0.21743 0.767757,-0.0892 0.223907,-0.26666 0.289154,-0.99314 0.132785,-1.47845 -0.252724,-0.78437 -1.793197,-1.00848 -2.582466,-0.3757 -0.967507,0.77566 -1.02174,1.73029 -0.173489,3.05378 0.267491,0.41736 0.456777,0.79405 0.420636,0.8371 -0.135293,0.16113 -1.068089,-1.50238 -1.156237,-2.06199 -0.210198,-1.33442 0.697735,-2.37429 2.073983,-2.37536 0.67903,-5e-4 0.867552,0.0699 1.235645,0.4616 0.327842,0.34887 0.437935,0.61227 0.448925,1.07405 0.02641,1.10947 -0.810766,1.69335 -1.370946,0.95614 -0.196184,-0.25818 -0.217544,-0.38247 -0.09153,-0.53255 0.269203,-0.32062 0.203902,-0.96132 -0.09798,-0.96132 -0.366438,0 -0.622276,0.42371 -0.527471,0.87358 0.04389,0.20825 0.366751,0.77902 0.717478,1.26838 0.693196,0.96719 0.896176,1.35598 1.048791,2.0089 0.08456,0.36175 0.12537,0.27562 0.271405,-0.57276 0.371656,-2.15912 0.27166,-1.99104 1.217157,-2.0459 l 0.841319,-0.0488 -0.321644,1.79626 c -0.388362,2.16885 -0.398366,2.32097 -0.135539,2.06118 0.106774,-0.10553 0.337031,-1.01339 0.511681,-2.01745 l 0.317546,-1.82557 h 0.815817 c 0.591285,0 0.815818,0.0618 0.815818,0.22443 0,0.12343 -0.155937,1.06408 -0.346527,2.09034 -0.19059,1.02625 -0.332073,1.94565 -0.314408,2.04309 0.01767,0.0975 -0.03904,0.20854 -0.12601,0.24688 -0.135494,0.0598 0.0807,-1.45297 0.580809,-4.06386 0.06671,-0.34828 0.02472,-0.37445 -0.60072,-0.37445 h -0.672445 l -0.309347,1.77339 c -0.314034,1.80025 -0.468092,2.22076 -0.813591,2.22076 -0.261295,0 -0.242894,-0.49424 0.08395,-2.25514 0.152046,-0.81916 0.277809,-1.54965 0.279473,-1.62331 0.0016,-0.0737 -0.295663,-0.11112 -0.660725,-0.0832 l -0.663749,0.0507 -0.346455,2.04635 c -0.31755,1.87561 -0.328622,2.08389 -0.132701,2.49634 0.170107,0.35811 0.312186,0.44753 0.695796,0.4379 0.265124,-0.007 0.592086,-0.0708 0.726582,-0.14262 0.154151,-0.0823 0.244539,-0.0603 0.244539,0.0596 0,0.10457 -0.280996,0.33359 -0.624435,0.50892 -0.691518,0.35303 -0.91984,0.90045 -0.659447,1.58109 0.182114,0.47604 0.596909,0.6503 1.217739,0.51158 0.596038,-0.13317 1.129206,-0.87854 1.253086,-1.75181 0.0596,-0.42016 0.170398,-0.67147 0.296034,-0.67147 0.184468,0 0.501885,-0.68468 0.446308,-0.9627 -0.01309,-0.0655 0.05305,-0.41861 0.146983,-0.78474 0.09393,-0.36613 0.283037,-1.30226 0.420239,-2.08029 l 0.249458,-1.41459 1.416916,-0.0474 c 1.269071,-0.0425 1.446584,-0.012 1.701226,0.29124 0.331906,0.39529 0.374995,1.34312 0.120705,2.65515 -0.166534,0.85925 -0.09368,1.21848 0.180821,0.89156 0.242803,-0.28918 0.685514,-2.76943 0.516528,-2.89381 -0.171438,-0.12619 -0.02183,-0.78133 0.253242,-1.10893 0.105143,-0.12523 0.191169,-0.40692 0.191169,-0.62599 0,-0.47892 0.266869,-0.66221 1.168276,-0.80237 l 0.6792,-0.1056 -0.0935,0.59363 c -0.0514,0.3265 -0.12799,0.70066 -0.17013,0.83146 -0.0511,0.15871 0.0191,0.23781 0.21123,0.23781 0.2136,0 0.32539,-0.16098 0.43338,-0.62408 0.08,-0.34325 0.14588,-0.74497 0.1463,-0.89271 5.29e-4,-0.19319 0.18282,-0.29833 0.6491,-0.37445 1.1672,-0.19054 1.15542,-0.19756 1.00848,0.60146 -0.0715,0.38902 -0.16229,0.83411 -0.20165,0.98909 -0.059,0.23246 0.0434,0.29072 0.58501,0.33285 0.52848,0.0411 0.71301,0.14137 0.945759,0.51397 0.286401,0.45846 0.2868,0.47666 0.0422,1.8919 -0.13584,0.78595 -0.214,1.46827 -0.173691,1.51628 0.111961,0.13334 0.49925,-0.30341 0.49925,-0.56301 0,-0.14378 0.1563,-0.22926 0.419211,-0.22926 0.506659,0 0.515311,0.11805 0.0831,1.13397 -0.379942,0.89295 -0.85161,1.269 -1.561631,1.24503 -1.01157,-0.0342 -1.27528,-0.74427 -0.96002,-2.58517 0.12429,-0.72573 0.19351,-1.35818 0.15382,-1.40545 -0.18575,-0.22122 -0.37142,0.2261 -0.58391,1.40685 -0.12734,0.70758 -0.29139,1.56913 -0.36454,1.91453 l -0.133,0.62801 -1.14656,0.002 c -0.6306,0.001 -1.300014,-0.001 -1.487571,-0.004 -0.417969,-0.008 -0.986485,-0.61355 -0.986485,-1.05049 0,-0.20489 -0.0699,-0.28969 -0.192577,-0.23363 -0.386365,0.17658 -0.472782,-0.21208 -0.282254,-1.26943 0.446933,-2.48031 0.273418,-2.77276 -1.617519,-2.72631 l -1.318872,0.0324 -0.179126,1.08175 c -0.09852,0.59496 -0.212533,1.25025 -0.253366,1.4562 -0.06198,0.31262 -0.01611,0.37445 0.277766,0.37445 0.193602,0 0.352004,0.0399 0.352004,0.0886 0,0.27028 -0.474612,1.37482 -0.729711,1.69822 l -0.297163,0.37673 h 0.643267 0.643265 l 0.160681,-0.95693 c 0.442338,-2.63436 0.769642,-3.51721 1.140297,-3.07576 0.127198,0.15149 0.110204,0.502 -0.07377,1.52164 -0.258312,1.43164 -0.202778,2.09429 0.196863,2.34902 0.335757,0.214 0.921001,0.20578 1.271898,-0.0179 0.15524,-0.099 0.313695,-0.14247 0.352123,-0.0967 0.13648,0.16255 -0.554636,0.47631 -1.049145,0.47631 -0.370336,0 -0.586138,-0.11611 -0.821497,-0.44198 -0.366546,-0.50752 -0.385864,-0.91382 -0.115009,-2.41891 0.106913,-0.59408 0.166537,-1.11332 0.132498,-1.15386 -0.213599,-0.2544 -0.515157,0.76523 -0.89452,3.02453 l -0.16068,0.95693 h -1.025835 -1.025836 l -0.09684,0.68265 c -0.140866,0.99302 -0.696977,1.66029 -1.469363,1.76308 -0.498142,0.0663 -0.701928,0.0101 -1.008558,-0.27807 z m 9.317443,-2.5956 c 0.32508,-0.38716 0.28198,-0.90344 -0.0754,-0.90344 -0.328367,0 -0.324841,-0.0787 0.10623,-2.37152 0.17098,-0.90944 0.26229,-1.12336 0.47947,-1.12336 0.14755,0 0.26828,-0.11234 0.26828,-0.24964 0,-0.1373 -0.0943,-0.24963 -0.20961,-0.24963 -0.24287,0 -0.26018,-0.20824 -0.0796,-0.95803 l 0.12998,-0.53978 h -0.53921 c -0.583968,0 -0.978387,0.33546 -0.978387,0.83211 0,0.17 -0.09618,0.42363 -0.213736,0.56363 -0.1299,0.15471 -0.182177,0.40431 -0.133279,0.63634 0.04425,0.20998 -0.01119,0.84968 -0.123214,1.42156 l -0.203668,1.03979 h 0.336949 c 0.414151,0 0.420485,0.18865 0.03794,1.12981 -0.248423,0.61118 -0.266154,0.76043 -0.104803,0.88211 0.313579,0.23651 1.064458,0.1731 1.302118,-0.10995 z m 1.66773,-0.0297 c 0.0383,-0.16019 0.17661,-0.89037 0.30738,-1.62263 0.26922,-1.50755 0.55829,-2.29973 0.80287,-2.20018 0.18306,0.0745 0.18891,0.62488 0.0247,2.32673 -0.0932,0.96571 -0.0729,1.17199 0.14307,1.4562 0.40456,0.5324 1.260701,0.4498 1.745611,-0.16843 0.2155,-0.27475 0.457541,-0.72409 0.537871,-0.99854 0.12854,-0.43915 0.114538,-0.49899 -0.116731,-0.49899 -0.14454,0 -0.302721,0.14986 -0.351539,0.33302 -0.0488,0.18317 -0.21118,0.41107 -0.360831,0.50645 -0.413511,0.26357 -0.471641,-0.15289 -0.224999,-1.61196 0.117779,-0.69678 0.178189,-1.38841 0.134228,-1.53696 -0.180858,-0.61132 -0.49856,-0.85259 -1.12266,-0.85259 h -0.62271 l 0.095,-0.62409 c 0.0522,-0.34324 0.13019,-0.79862 0.17326,-1.01194 0.0761,-0.37717 0.0595,-0.38461 -0.60342,-0.26992 -0.37495,0.0649 -0.68761,0.12707 -0.6948,0.13823 -0.007,0.0111 -0.19969,1.06875 -0.42776,2.3502 l -0.41467,2.32993 0.32295,0.0526 c 0.17762,0.0289 0.32295,0.12629 0.32295,0.21629 0,0.26754 -0.43043,1.2009 -0.73938,1.60331 l -0.28749,0.37445 h 0.64376 c 0.49342,0 0.66001,-0.068 0.71337,-0.29124 z m -7.423164,-0.58248 c 0.348909,-0.63566 0.432965,-1.12336 0.19361,-1.12336 -0.261402,0 -0.306542,0.0928 -0.424851,0.87372 -0.108909,0.71884 -0.05704,0.77483 0.231241,0.24964 z m 6.535504,-0.16643 c 0.15229,-0.29748 0.27713,-0.63449 0.27742,-0.7489 5.29e-4,-0.218 -0.41623,-0.30017 -0.42203,-0.0832 -0.002,0.0686 -0.0581,0.40565 -0.12502,0.7489 -0.14926,0.76552 -0.0892,0.78407 0.26963,0.0832 z M 12.47086,209.43499 c 0.326734,-0.38914 0.287097,-1.19253 -0.08043,-1.63026 -0.172676,-0.20565 -0.190595,-0.1948 -0.133803,0.081 0.0484,0.23506 -0.05407,0.38379 -0.391386,0.56807 -0.525437,0.28704 -0.639887,0.67369 -0.314223,1.06154 0.304491,0.36265 0.567154,0.3397 0.919844,-0.0803 z m 10.879955,-0.60675 c 0.0088,-0.37121 -0.379819,-0.21962 -0.44279,0.1727 -0.102311,0.63742 0.04184,0.88636 0.251881,0.43498 0.102276,-0.21982 0.188187,-0.49327 0.190909,-0.60768 z m 1.520442,0.16642 c 0.0704,-0.16018 0.20082,-0.70183 0.28989,-1.20368 0.0891,-0.50184 0.19661,-1.077 0.239,-1.27815 0.0645,-0.30611 0.0296,-0.35094 -0.21403,-0.27506 -0.28682,0.0893 -0.42089,0.48289 -0.64154,1.88317 -0.0505,0.32036 -0.12276,0.71354 -0.16063,0.87372 -0.044,0.18633 0.008,0.29124 0.14525,0.29124 0.11776,0 0.27169,-0.13106 0.34206,-0.29124 z M 15.628585,212.01 c -0.160139,-0.19072 0.185835,-0.72702 0.469011,-0.72702 0.264178,0 0.266572,0.0204 0.04888,0.41605 -0.232782,0.42312 -0.359723,0.49934 -0.517891,0.31097 z m -12.0800572,-4.63196 -1.431861,-3.41768 h 0.916981 0.916982 l 0.973523,2.43551 c 0.535438,1.33954 1.007198,2.39541 1.048354,2.3464 0.04116,-0.049 0.5078,-1.145 1.036985,-2.43552 l 0.962155,-2.34639 h 0.921203 0.921206 l -1.466756,3.37007 -1.466757,3.37007 -0.950077,0.0476 -0.950077,0.0476 z m 2.124194,-3.49333 c -0.415846,-0.49525 -0.437358,-0.97692 -0.06352,-1.42215 0.379763,-0.45229 1.042744,-0.43369 1.319576,0.037 0.319603,0.54343 0.266058,1.0583 -0.150659,1.44869 -0.477027,0.44689 -0.68693,0.43482 -1.105399,-0.0636 z m 1.252011,-0.46022 c 0.277118,-0.94442 -0.796506,-1.55211 -1.258511,-0.71234 -0.212407,0.38609 -0.212019,0.44674 0.0054,0.8419 0.329188,0.59835 1.061764,0.52261 1.253129,-0.12956 z m -0.896318,-1.96051 c -0.153711,-0.18306 -0.279474,-0.48603 -0.279474,-0.67326 0,-0.38796 0.587077,-1.15739 0.883093,-1.15739 0.357938,0 0.933484,0.6744 0.933484,1.09383 0,0.52348 -0.46378,1.06966 -0.908288,1.06966 -0.192138,0 -0.475105,-0.14977 -0.628815,-0.33284 z m 1.19159,-0.17146 c 0.389311,-0.51234 0.140239,-1.22584 -0.451894,-1.29453 -0.347811,-0.0403 -0.493367,0.0401 -0.677297,0.37446 -0.217401,0.39516 -0.217788,0.45581 -0.0054,0.84189 0.279564,0.50816 0.781562,0.54274 1.134573,0.0782 z"
       id="path869"
       inkscape:connector-curvature="0" />
    <g
       aria-label="SRC"
       style="font-style:normal;font-variant:normal;font-weight:bold;font-stretch:normal;font-size:4.23333359px;line-height:125%;font-family:sans-serif;-inkscape-font-specification:'sans-serif, Bold';font-variant-ligatures:normal;font-variant-caps:normal;font-variant-numeric:normal;font-feature-settings:normal;text-align:start;letter-spacing:10.53570938px;word-spacing:0px;writing-mode:lr-tb;text-anchor:start;fill:#81e937;fill-opacity:1;stroke:none;stroke-width:0.26458335px;stroke-linecap:butt;stroke-linejoin:miter;stroke-opacity:1"
       id="text976">
      <path
         d="m 12.45934,234.81082 v 0.65319 q -0.254248,-0.11368 -0.496094,-0.17156 -0.241846,-0.0579 -0.45682,-0.0579 -0.285254,0 -0.421679,0.0786 -0.136426,0.0786 -0.136426,0.24391 0,0.12403 0.09095,0.19431 0.09302,0.0682 0.334864,0.11782 l 0.338997,0.0682 q 0.514697,0.10335 0.731738,0.31419 0.217041,0.21084 0.217041,0.59945 0,0.51056 -0.303857,0.76068 -0.30179,0.24804 -0.923975,0.24804 -0.293522,0 -0.589111,-0.0558 -0.295589,-0.0558 -0.591178,-0.16536 v -0.67179 q 0.295589,0.15709 0.570507,0.23771 0.276986,0.0786 0.533301,0.0786 0.260449,0 0.398942,-0.0868 0.138493,-0.0868 0.138493,-0.24805 0,-0.14469 -0.09508,-0.22324 -0.09302,-0.0786 -0.374138,-0.14056 l -0.307991,-0.0682 q -0.463021,-0.0992 -0.677995,-0.31626 -0.212907,-0.21704 -0.212907,-0.58498 0,-0.46095 0.297656,-0.709 0.297656,-0.24805 0.855762,-0.24805 0.254248,0 0.522965,0.0393 0.268718,0.0372 0.556039,0.11368 z"
         style="font-style:normal;font-variant:normal;font-weight:bold;font-stretch:normal;font-size:4.23333359px;line-height:129.99999523%;font-family:sans-serif;-inkscape-font-specification:'sans-serif, Bold';font-variant-ligatures:normal;font-variant-caps:normal;font-variant-numeric:normal;font-feature-settings:normal;text-align:start;letter-spacing:0.10583334px;writing-mode:lr-tb;text-anchor:start;fill:#81e937;fill-opacity:1;stroke-width:0.26458335px"
         id="path978" />
      <path
         d="m 14.599158,236.08206 q 0.250114,0 0.357601,-0.093 0.109554,-0.093 0.109554,-0.30593 0,-0.21084 -0.109554,-0.30179 -0.107487,-0.0909 -0.357601,-0.0909 h -0.334864 v 0.79168 z m -0.334864,0.54984 v 1.16789 h -0.795817 v -3.08612 h 1.21543 q 0.609782,0 0.892969,0.20464 0.285254,0.20464 0.285254,0.64699 0,0.30592 -0.148828,0.5023 -0.146761,0.19637 -0.444418,0.28938 0.163298,0.0372 0.291455,0.1695 0.130225,0.13023 0.262517,0.39688 l 0.432015,0.87643 h -0.847494 l -0.376204,-0.76688 q -0.113688,-0.23151 -0.231511,-0.31626 -0.115755,-0.0847 -0.310058,-0.0847 z"
         style="font-style:normal;font-variant:normal;font-weight:bold;font-stretch:normal;font-size:4.23333359px;line-height:129.99999523%;font-family:sans-serif;-inkscape-font-specification:'sans-serif, Bold';font-variant-ligatures:normal;font-variant-caps:normal;font-variant-numeric:normal;font-feature-settings:normal;text-align:start;letter-spacing:0.10583334px;writing-mode:lr-tb;text-anchor:start;fill:#81e937;fill-opacity:1;stroke-width:0.26458335px"
         id="path980" />
      <path
         d="m 19.279389,237.63029 q -0.219108,0.11369 -0.456819,0.17157 -0.237712,0.0579 -0.496094,0.0579 -0.771013,0 -1.221631,-0.42994 -0.450619,-0.43202 -0.450619,-1.16996 0,-0.74 0.450619,-1.16995 0.450618,-0.43202 1.221631,-0.43202 0.258382,0 0.496094,0.0579 0.237711,0.0579 0.456819,0.17157 v 0.63872 q -0.221175,-0.1509 -0.436149,-0.22118 -0.214974,-0.0703 -0.452685,-0.0703 -0.425814,0 -0.669727,0.27285 -0.243913,0.27285 -0.243913,0.75241 0,0.47749 0.243913,0.75034 0.243913,0.27286 0.669727,0.27286 0.237711,0 0.452685,-0.0703 0.214974,-0.0703 0.436149,-0.22118 z"
         style="font-style:normal;font-variant:normal;font-weight:bold;font-stretch:normal;font-size:4.23333359px;line-height:129.99999523%;font-family:sans-serif;-inkscape-font-specification:'sans-serif, Bold';font-variant-ligatures:normal;font-variant-caps:normal;font-variant-numeric:normal;font-feature-settings:normal;text-align:start;letter-spacing:0.10583334px;writing-mode:lr-tb;text-anchor:start;fill:#81e937;fill-opacity:1;stroke-width:0.26458335px"
         id="path982" />
    </g>
    <g
       aria-label="~ plain viewer ~"
       style="font-style:normal;font-weight:normal;font-size:4.23333359px;line-height:125%;font-family:sans-serif;letter-spacing:0px;word-spacing:0px;fill:#000000;fill-opacity:1;stroke:none;stroke-width:0.26458335px;stroke-linecap:butt;stroke-linejoin:miter;stroke-opacity:1"
       id="text987">
      <path
         d="m 3.5444047,291.85089 v 0.30661 q -0.1808675,0.13608 -0.3358968,0.19465 -0.1533068,0.0586 -0.3203939,0.0586 -0.1894803,0 -0.4409722,-0.10163 -0.018948,-0.007 -0.027561,-0.0103 -0.012058,-0.005 -0.037896,-0.0138 -0.2669949,-0.1068 -0.4289144,-0.1068 -0.1515842,0 -0.2997233,0.0672 -0.1481391,0.0655 -0.3169488,0.20843 v -0.30661 q 0.1808675,-0.13609 0.3341743,-0.19465 0.1550293,-0.0603 0.3221164,-0.0603 0.1894803,0 0.4426948,0.10335 0.017225,0.007 0.025838,0.0103 0.01378,0.005 0.037896,0.0138 0.2669949,0.1068 0.4289144,0.1068 0.1481391,0 0.2928331,-0.0655 0.1464166,-0.0655 0.323839,-0.21015 z"
         style="font-size:3.52777791px;letter-spacing:0px;stroke-width:0.26458335px"
         id="path989" />
      <path
         d="m 5.6803641,292.96882 v 1.02319 H 5.3616928 v -2.66305 h 0.3186713 v 0.29283 q 0.099908,-0.17226 0.251492,-0.25494 0.1533067,-0.0844 0.3651801,-0.0844 0.3513998,0 0.5701633,0.27905 0.2204862,0.27905 0.2204862,0.73381 0,0.45475 -0.2204862,0.7338 -0.2187635,0.27905 -0.5701633,0.27905 -0.2118734,0 -0.3651801,-0.0827 -0.1515842,-0.0844 -0.251492,-0.25666 z m 1.0783149,-0.67351 q 0,-0.34968 -0.144694,-0.54778 -0.1429715,-0.19981 -0.3944634,-0.19981 -0.251492,0 -0.396186,0.19981 -0.1429715,0.1981 -0.1429715,0.54778 0,0.34967 0.1429715,0.54949 0.144694,0.19809 0.396186,0.19809 0.2514919,0 0.3944634,-0.19809 0.144694,-0.19982 0.144694,-0.54949 z"
         style="font-size:3.52777791px;letter-spacing:0px;stroke-width:0.26458335px"
         id="path991" />
      <path
         d="m 7.6130628,290.57792 h 0.3169488 v 2.68029 H 7.6130628 Z"
         style="font-size:3.52777791px;letter-spacing:0px;stroke-width:0.26458335px"
         id="path993" />
      <path
         d="m 9.4682465,292.28841 q -0.3841282,0 -0.5322673,0.0879 -0.1481391,0.0879 -0.1481391,0.29973 0,0.16881 0.1102431,0.26872 0.1119656,0.0982 0.3031684,0.0982 0.2635498,0 0.4220242,-0.18603 0.160197,-0.18776 0.160197,-0.49782 v -0.0706 z m 0.6321755,-0.13091 v 1.10071 H 9.7834728 v -0.29283 q -0.1085206,0.1757 -0.2704401,0.2601 -0.1619194,0.0827 -0.3961859,0.0827 -0.2962783,0 -0.4719781,-0.16536 -0.1739774,-0.16709 -0.1739774,-0.44614 0,-0.32556 0.217041,-0.49093 0.2187636,-0.16536 0.6511231,-0.16536 h 0.4444174 v -0.031 q 0,-0.21876 -0.1446941,-0.33762 -0.1429714,-0.12058 -0.4030761,-0.12058 -0.1653646,0 -0.3221165,0.0396 -0.1567518,0.0396 -0.3014459,0.11886 v -0.29283 q 0.1739774,-0.0672 0.3376194,-0.0999 0.1636421,-0.0344 0.3186714,-0.0344 0.4185791,0 0.6252848,0.21704 0.2067062,0.21704 0.2067062,0.65801 z"
         style="font-size:3.52777791px;letter-spacing:0px;stroke-width:0.26458335px"
         id="path995" />
      <path
         d="m 10.75499,291.32896 h 0.316949 v 1.92925 H 10.75499 Z m 0,-0.75104 h 0.316949 v 0.40136 H 10.75499 Z"
         style="font-size:3.52777791px;letter-spacing:0px;stroke-width:0.26458335px"
         id="path997" />
      <path
         d="m 13.337089,292.09377 v 1.16444 H 13.02014 v -1.15411 q 0,-0.27388 -0.106798,-0.40996 -0.106798,-0.13609 -0.320394,-0.13609 -0.256659,0 -0.404798,0.16365 -0.14814,0.16364 -0.14814,0.44614 v 1.09037 h -0.318671 v -1.92925 h 0.318671 v 0.29972 q 0.113689,-0.17398 0.266995,-0.26011 0.15503,-0.0861 0.356568,-0.0861 0.332451,0 0.502984,0.2067 0.170532,0.20499 0.170532,0.60462 z"
         style="font-size:3.52777791px;letter-spacing:0px;stroke-width:0.26458335px"
         id="path999" />
      <path
         d="m 14.868434,291.32896 h 0.335897 l 0.602892,1.61919 0.602891,-1.61919 h 0.335897 l -0.72347,1.92925 h -0.430637 z"
         style="font-size:3.52777791px;letter-spacing:0px;stroke-width:0.26458335px"
         id="path1001" />
      <path
         d="m 17.183538,291.32896 h 0.316949 v 1.92925 h -0.316949 z m 0,-0.75104 h 0.316949 v 0.40136 h -0.316949 z"
         style="font-size:3.52777791px;letter-spacing:0px;stroke-width:0.26458335px"
         id="path1003" />
      <path
         d="m 19.812146,292.21435 v 0.15502 H 18.35487 q 0.02067,0.32729 0.196371,0.49954 0.177422,0.17054 0.492648,0.17054 0.18259,0 0.353123,-0.0448 0.172254,-0.0448 0.341064,-0.13436 v 0.29972 q -0.170532,0.0724 -0.349677,0.11025 -0.179145,0.0379 -0.363458,0.0379 -0.461643,0 -0.732083,-0.26871 -0.268717,-0.26872 -0.268717,-0.72692 0,-0.4737 0.254937,-0.75103 0.25666,-0.27905 0.690742,-0.27905 0.389295,0 0.614949,0.25149 0.227377,0.24977 0.227377,0.68041 z m -0.316949,-0.093 q -0.0034,-0.26011 -0.146417,-0.41514 -0.141249,-0.15503 -0.375515,-0.15503 -0.265273,0 -0.42547,0.14987 -0.158474,0.14986 -0.18259,0.42202 z"
         style="font-size:3.52777791px;letter-spacing:0px;stroke-width:0.26458335px"
         id="path1005" />
      <path
         d="m 20.148042,291.32896 h 0.316949 l 0.396186,1.5055 0.394464,-1.5055 h 0.373792 l 0.396186,1.5055 0.394464,-1.5055 h 0.316949 l -0.504707,1.92925 h -0.373793 l -0.415134,-1.5813 -0.416856,1.5813 h -0.373793 z"
         style="font-size:3.52777791px;letter-spacing:0px;stroke-width:0.26458335px"
         id="path1007" />
      <path
         d="m 24.869547,292.21435 v 0.15502 h -1.457275 q 0.02067,0.32729 0.19637,0.49954 0.177423,0.17054 0.492649,0.17054 0.18259,0 0.353122,-0.0448 0.172255,-0.0448 0.341065,-0.13436 v 0.29972 q -0.170533,0.0724 -0.349678,0.11025 -0.179145,0.0379 -0.363457,0.0379 -0.461643,0 -0.732083,-0.26871 -0.268717,-0.26872 -0.268717,-0.72692 0,-0.4737 0.254937,-0.75103 0.256659,-0.27905 0.690741,-0.27905 0.389296,0 0.61495,0.25149 0.227376,0.24977 0.227376,0.68041 z m -0.316949,-0.093 q -0.0034,-0.26011 -0.146416,-0.41514 -0.141249,-0.15503 -0.375516,-0.15503 -0.265272,0 -0.425469,0.14987 -0.158474,0.14986 -0.18259,0.42202 z"
         style="font-size:3.52777791px;letter-spacing:0px;stroke-width:0.26458335px"
         id="path1009" />
      <path
         d="m 26.50769,291.62523 q -0.0534,-0.031 -0.117133,-0.0448 -0.06201,-0.0155 -0.137804,-0.0155 -0.268717,0 -0.413411,0.1757 -0.142972,0.17398 -0.142972,0.50127 v 1.0163 h -0.318671 v -1.92925 h 0.318671 v 0.29972 q 0.09991,-0.1757 0.260105,-0.26011 0.160197,-0.0861 0.389296,-0.0861 0.03273,0 0.07235,0.005 0.03962,0.003 0.08785,0.0121 z"
         style="font-size:3.52777791px;letter-spacing:0px;stroke-width:0.26458335px"
         id="path1011" />
      <path
         d="m 30.216335,291.85089 v 0.30661 q -0.180867,0.13608 -0.335897,0.19465 -0.153307,0.0586 -0.320394,0.0586 -0.18948,0 -0.440972,-0.10163 -0.01895,-0.007 -0.02756,-0.0103 -0.01206,-0.005 -0.0379,-0.0138 -0.266995,-0.1068 -0.428914,-0.1068 -0.151584,0 -0.299723,0.0672 -0.14814,0.0655 -0.316949,0.20843 v -0.30661 q 0.180867,-0.13609 0.334174,-0.19465 0.155029,-0.0603 0.322116,-0.0603 0.189481,0 0.442695,0.10335 0.01723,0.007 0.02584,0.0103 0.01378,0.005 0.0379,0.0138 0.266994,0.1068 0.428914,0.1068 0.148139,0 0.292833,-0.0655 0.146417,-0.0655 0.323839,-0.21015 z"
         style="font-size:3.52777791px;letter-spacing:0px;stroke-width:0.26458335px"
         id="path1013" />
    </g>
  </g>
  <g
     inkscape:groupmode="layer"
     id="layer2"
     inkscape:label="preview">
    <rect
       style="opacity:1;fill:#b3b3b3;fill-opacity:0.21487606;stroke:#7e0000;stroke-width:0.26500002;stroke-miterlimit:4;stroke-dasharray:none;stroke-dashoffset:0;stroke-opacity:1"
       id="rect48"
       width="126.46909"
       height="100.23706"
       x="32.148411"
       y="0.13250001" />
    <g
       aria-label="REF"
       style="font-style:normal;font-weight:normal;font-size:4.23333359px;line-height:125%;font-family:sans-serif;letter-spacing:10.53570938px;word-spacing:0px;fill:url(#linearGradient2321);fill-opacity:1;stroke:url(#linearGradient2327);stroke-width:0.26458335px;stroke-linecap:butt;stroke-linejoin:miter;stroke-opacity:1"
       id="text68"
       transform="translate(-135.91731,-6.141827)">
      <path
         d="m 148.53373,76.983121 q 0.13435,0.04547 0.26044,0.194304 0.12816,0.148828 0.25632,0.409277 l 0.42375,0.843359 h -0.44856 l -0.3948,-0.791683 q -0.15297,-0.310058 -0.29766,-0.411344 -0.14263,-0.101286 -0.39067,-0.101286 h -0.45476 v 1.304313 h -0.41754 v -3.086116 h 0.94258 q 0.52916,0 0.78961,0.221175 0.26045,0.221175 0.26045,0.667659 0,0.291455 -0.13642,0.483692 -0.13436,0.192236 -0.39274,0.26665 z m -1.04594,-1.296045 v 1.095541 h 0.52504 q 0.30179,0 0.45475,-0.138493 0.15503,-0.14056 0.15503,-0.411345 0,-0.270784 -0.15503,-0.40721 -0.15296,-0.138493 -0.45475,-0.138493 z"
         style="letter-spacing:0.26458335px;fill:url(#linearGradient848);fill-opacity:1;stroke:url(#linearGradient850);stroke-width:0.26458335px"
         id="path863"
         inkscape:connector-curvature="0" />
      <path
         d="m 150.27832,75.343945 h 1.9513 v 0.351399 h -1.53375 v 0.91364 h 1.46967 v 0.3514 h -1.46967 v 1.118278 h 1.57096 v 0.351399 h -1.98851 z"
         style="letter-spacing:0.26458335px;fill:url(#linearGradient852);fill-opacity:1;stroke:url(#linearGradient854);stroke-width:0.26458335px"
         id="path865"
         inkscape:connector-curvature="0" />
      <path
         d="m 153.22181,75.343945 h 1.77354 v 0.351399 h -1.35599 v 0.909506 h 1.22369 v 0.351399 h -1.22369 v 1.473812 h -0.41755 z"
         style="letter-spacing:0.26458335px;fill:url(#linearGradient856);fill-opacity:1;stroke:url(#linearGradient858);stroke-width:0.26458335px"
         id="path867"
         inkscape:connector-curvature="0" />
    </g>
  </g>
</svg>
